<?xml version="1.0" encoding="UTF-8" standalone="no"?>
<!DOCTYPE svg PUBLIC "-//W3C//DTD SVG 1.1//EN" "http://www.w3.org/Graphics/SVG/1.1/DTD/svg11.dtd">
<svg width="100%" height="100%" viewBox="0 0 450 150" version="1.1"
    xmlns="http://www.w3.org/2000/svg"
    xmlns:xlink="http://www.w3.org/1999/xlink" xml:space="preserve" style="fill-rule:evenodd;clip-rule:evenodd;stroke-linejoin:round;stroke-miterlimit:2;">
    <g transform="matrix(0.916165,0,0,0.842254,62.7367,58.9956)">
        <g>
            <g transform="matrix(74.3426,0,0,74.3426,52.0213,54.0957)">
                <path d="M0.382,-0.24C0.397,-0.195 0.407,-0.165 0.412,-0.148C0.417,-0.132 0.42,-0.121 0.422,-0.113L0.424,-0.113C0.426,-0.119 0.431,-0.136 0.44,-0.164L0.462,-0.228L0.629,-0.716L0.759,-0.716L0.759,-0L0.669,-0L0.669,-0.599L0.667,-0.599L0.461,-0L0.376,-0L0.171,-0.609L0.168,-0.609L0.168,-0L0.078,-0L0.078,-0.716L0.223,-0.716L0.382,-0.24Z" style="fill-rule:nonzero;"/>
            </g>
            <g transform="matrix(74.3426,0,0,74.3426,113.695,54.0957)">
                <path d="M0.219,-0.219C0.229,-0.191 0.236,-0.17 0.24,-0.155C0.245,-0.141 0.25,-0.122 0.256,-0.098L0.258,-0.098C0.264,-0.127 0.269,-0.148 0.273,-0.16C0.277,-0.172 0.286,-0.197 0.3,-0.236L0.403,-0.518L0.492,-0.518L0.282,0.039C0.265,0.083 0.249,0.118 0.233,0.143C0.218,0.167 0.201,0.185 0.183,0.195C0.165,0.205 0.144,0.21 0.119,0.21C0.11,0.21 0.098,0.209 0.083,0.207C0.069,0.205 0.056,0.202 0.046,0.2L0.064,0.126C0.078,0.131 0.091,0.134 0.104,0.134C0.122,0.134 0.138,0.129 0.15,0.12C0.162,0.11 0.172,0.098 0.18,0.082C0.188,0.066 0.195,0.049 0.201,0.032C0.208,0.015 0.212,0.005 0.213,0.001L0.016,-0.518L0.111,-0.518L0.219,-0.219Z" style="fill-rule:nonzero;"/>
            </g>
            <g transform="matrix(74.3426,0,0,74.3426,150.866,54.0957)">
                <path d="M0.489,-0.501C0.478,-0.554 0.459,-0.591 0.432,-0.613C0.404,-0.636 0.367,-0.647 0.32,-0.647C0.289,-0.647 0.262,-0.642 0.238,-0.633C0.214,-0.624 0.195,-0.611 0.182,-0.594C0.169,-0.578 0.162,-0.558 0.162,-0.536C0.162,-0.513 0.168,-0.495 0.18,-0.481C0.192,-0.468 0.211,-0.456 0.236,-0.447C0.26,-0.438 0.296,-0.429 0.343,-0.418C0.407,-0.404 0.458,-0.388 0.495,-0.37C0.533,-0.352 0.56,-0.329 0.577,-0.302C0.594,-0.276 0.603,-0.242 0.603,-0.202C0.603,-0.162 0.592,-0.125 0.57,-0.093C0.547,-0.06 0.516,-0.035 0.477,-0.016C0.438,0.003 0.393,0.012 0.344,0.012C0.258,0.012 0.19,-0.008 0.138,-0.048C0.087,-0.088 0.056,-0.146 0.045,-0.223L0.138,-0.245C0.145,-0.187 0.165,-0.142 0.199,-0.113C0.233,-0.084 0.28,-0.069 0.34,-0.069C0.371,-0.069 0.4,-0.074 0.426,-0.084C0.453,-0.094 0.474,-0.108 0.489,-0.126C0.504,-0.144 0.512,-0.165 0.512,-0.187C0.512,-0.217 0.505,-0.24 0.49,-0.257C0.476,-0.274 0.454,-0.287 0.425,-0.297C0.401,-0.306 0.366,-0.315 0.32,-0.326C0.292,-0.332 0.273,-0.337 0.262,-0.34C0.212,-0.354 0.174,-0.37 0.146,-0.389C0.118,-0.408 0.099,-0.429 0.088,-0.453C0.077,-0.477 0.071,-0.505 0.071,-0.538C0.071,-0.574 0.082,-0.606 0.103,-0.635C0.125,-0.664 0.154,-0.687 0.192,-0.703C0.229,-0.72 0.271,-0.728 0.318,-0.728C0.367,-0.728 0.41,-0.72 0.448,-0.704C0.486,-0.687 0.516,-0.664 0.539,-0.633C0.562,-0.602 0.576,-0.565 0.582,-0.522L0.491,-0.501L0.489,-0.501Z" style="fill-rule:nonzero;"/>
            </g>
            <g transform="matrix(74.3426,0,0,74.3426,199.545,54.0957)">
                <path d="M0.745,-0.003L0.709,0.072C0.685,0.062 0.662,0.051 0.641,0.037C0.62,0.024 0.592,0.002 0.555,-0.028C0.505,-0.001 0.449,0.012 0.389,0.012C0.324,0.012 0.265,-0.003 0.213,-0.034C0.161,-0.065 0.12,-0.109 0.09,-0.165C0.061,-0.221 0.046,-0.285 0.046,-0.357C0.046,-0.431 0.061,-0.496 0.09,-0.552C0.119,-0.608 0.16,-0.652 0.212,-0.682C0.264,-0.713 0.323,-0.728 0.389,-0.728C0.454,-0.728 0.512,-0.713 0.564,-0.682C0.616,-0.652 0.657,-0.608 0.687,-0.552C0.716,-0.496 0.731,-0.431 0.731,-0.358C0.731,-0.297 0.721,-0.243 0.702,-0.196C0.683,-0.148 0.657,-0.109 0.622,-0.077C0.648,-0.058 0.67,-0.043 0.687,-0.032C0.704,-0.021 0.723,-0.012 0.745,-0.003ZM0.389,-0.121L0.415,-0.198C0.44,-0.192 0.462,-0.184 0.482,-0.174C0.502,-0.164 0.524,-0.149 0.55,-0.128C0.576,-0.152 0.597,-0.184 0.611,-0.222C0.626,-0.26 0.633,-0.305 0.633,-0.356C0.633,-0.416 0.623,-0.467 0.602,-0.511C0.582,-0.555 0.553,-0.588 0.516,-0.612C0.479,-0.635 0.436,-0.647 0.388,-0.647C0.34,-0.647 0.298,-0.635 0.261,-0.612C0.224,-0.589 0.195,-0.556 0.175,-0.511C0.154,-0.467 0.144,-0.415 0.144,-0.355C0.144,-0.297 0.154,-0.246 0.175,-0.203C0.196,-0.16 0.225,-0.127 0.262,-0.104C0.299,-0.08 0.341,-0.069 0.389,-0.069C0.424,-0.069 0.454,-0.074 0.48,-0.084C0.465,-0.093 0.451,-0.101 0.437,-0.107C0.422,-0.112 0.406,-0.117 0.389,-0.121Z" style="fill-rule:nonzero;"/>
            </g>
            <g transform="matrix(74.3426,0,0,74.3426,257.298,54.0957)">
                <path d="M0.173,-0.085L0.526,-0.085L0.526,-0L0.078,-0L0.078,-0.716L0.173,-0.716L0.173,-0.085Z" style="fill-rule:nonzero;"/>
            </g>
        </g>
    </g>
</svg>
