<?xml version="1.0" encoding="UTF-8" standalone="no"?><!DOCTYPE svg PUBLIC "-//W3C//DTD SVG 1.1//EN" "http://www.w3.org/Graphics/SVG/1.1/DTD/svg11.dtd">
<svg width="100%" height="100%" viewBox="0 0 450 150" version="1.1"
    xmlns="http://www.w3.org/2000/svg"
    xmlns:xlink="http://www.w3.org/1999/xlink" xml:space="preserve" style="fill-rule:evenodd;clip-rule:evenodd;stroke-linejoin:round;stroke-miterlimit:2;">
    <rect id="MariaDBIcon" x="0" y="0" width="450" height="150" style="fill:none;"/>
    <g>
        <path d="M249.084,108.702c-2.237,-3.069 -5.155,-4.601 -8.746,-4.601c-3.124,0 -5.803,1.147 -8.043,3.44c-2.239,2.267 -3.359,5.002 -3.359,8.208c0,3.179 1.105,5.93 3.317,8.251c2.239,2.293 4.978,3.442 8.208,3.442c3.231,0 6.11,-1.506 8.625,-4.52l0,3.774l2.792,0l0,-22.014l-2.792,0l-0.002,4.02Zm-2.403,13.557c-1.714,1.714 -3.774,2.573 -6.178,2.573c-2.377,0 -4.422,-0.885 -6.136,-2.655c-1.714,-1.796 -2.572,-3.91 -2.572,-6.343c-0.032,-2.353 0.88,-4.623 2.53,-6.301c1.572,-1.748 3.826,-2.732 6.176,-2.696c2.461,0 4.533,0.871 6.218,2.612c1.685,1.714 2.528,3.829 2.528,6.344c0,2.599 -0.857,4.754 -2.572,6.468m-23.356,-17.579l2.861,0l0,22.015l-2.861,0l0,-22.015Zm-74.481,22.014l2.862,0l2.901,-21.461l10.657,21.461l0.746,0l10.53,-21.31l2.903,21.31l2.943,0l-4.27,-29.767l-0.441,0l-12.024,24.42l-12.108,-24.42l-0.441,0l-4.258,29.767Zm55.172,-17.992c-2.234,-3.07 -5.153,-4.601 -8.746,-4.601c-3.122,0 -5.802,1.146 -8.04,3.439c-2.241,2.267 -3.359,5.003 -3.359,8.208c-0.04,3.082 1.155,6.054 3.316,8.251c2.239,2.293 4.977,3.443 8.209,3.443c3.233,0 6.109,-1.507 8.623,-4.52l0,3.773l2.793,0l0,-22.015l-2.793,0l-0.003,4.022Zm-2.403,13.557c-1.714,1.714 -3.774,2.572 -6.178,2.572c-2.377,0 -4.422,-0.885 -6.136,-2.655c-1.714,-1.796 -2.572,-3.91 -2.572,-6.342c-0.032,-2.353 0.879,-4.624 2.528,-6.302c1.688,-1.796 3.745,-2.696 6.178,-2.696c2.461,0 4.533,0.872 6.218,2.612c1.685,1.714 2.528,3.83 2.528,6.345c0.002,2.598 -0.852,4.753 -2.569,6.467m74.126,-21.437c-1.438,-1.353 -3.151,-2.352 -5.141,-2.943c-1.962,-0.635 -5.056,-0.955 -9.287,-0.955l-6.177,0l0,29.769l9.496,0c3.871,0 6.827,-0.582 8.871,-1.742c2.058,-1.176 3.705,-2.875 4.892,-5.142c1.204,-2.243 1.831,-4.751 1.824,-7.297c0,-2.602 -0.386,-4.851 -1.176,-6.798c-0.789,-1.948 -1.881,-3.566 -3.317,-4.895m0.539,16.5c-0.638,1.52 -1.562,2.819 -2.793,3.895c-1.214,1.051 -2.64,1.754 -4.268,2.114c-1.617,0.36 -4.201,0.539 -7.797,0.539l-3.439,0l0,-24.039l2.113,0c3.566,0 6.262,0.194 8.085,0.581c1.852,0.36 3.454,1.079 4.807,2.156c1.352,1.078 2.391,2.446 3.11,4.104c0.747,1.658 1.117,3.469 1.117,5.432c0,1.962 -0.316,3.704 -0.951,5.222m18.648,-6.882c1.245,-0.661 2.181,-1.533 2.819,-2.612c0.661,-1.105 0.995,-2.308 0.995,-3.607c0,-2.349 -0.816,-4.145 -2.446,-5.39c-1.617,-1.272 -3.966,-1.907 -7.089,-1.907l-5.873,0l0,29.769l8.208,0c2.849,0 5.17,-0.803 6.968,-2.405c1.796,-1.617 2.694,-3.675 2.694,-6.137c0,-1.822 -0.539,-3.4 -1.617,-4.727c-1.051,-1.323 -2.598,-2.32 -4.645,-2.984m-8.665,-10.613l3.443,0c3.98,0 5.971,1.464 5.971,4.41c0,1.77 -0.635,3.069 -1.907,3.898c-1.271,0.829 -3.207,1.244 -5.806,1.244l-1.701,0l0,-9.552Zm10.878,21.349c-0.638,0.885 -1.464,1.548 -2.489,1.991c-0.994,0.414 -2.558,0.623 -4.683,0.623l-3.693,0l0,-11.443l1.658,0c2.682,0 4.506,0.138 5.476,0.414c0.995,0.276 1.837,0.691 2.528,1.245c0.735,0.553 1.257,1.176 1.617,1.907c0.36,0.73 0.538,1.547 0.538,2.487c0,0.939 -0.317,1.867 -0.955,2.793m-72.362,-24.254c-0.549,-0.001 -1.075,0.222 -1.455,0.617c-0.388,0.412 -0.582,0.882 -0.582,1.47c-0.001,0.531 0.208,1.042 0.582,1.42c0.411,0.412 0.882,0.617 1.47,0.617c0.548,0.015 1.08,-0.196 1.47,-0.582c0.411,-0.411 0.617,-0.899 0.617,-1.47c0.014,-0.552 -0.212,-1.083 -0.619,-1.456c-0.373,-0.407 -0.905,-0.633 -1.457,-0.619m-5.281,7.413c-2.282,0.309 -4.393,1.385 -5.983,3.051l-0.294,0.338l0,-3.031l-0.494,0l0,-0.044l-2.204,0l0,22.024l2.888,0l0,-13.053c-0.012,-1.226 0.353,-2.427 1.047,-3.439c1.184,-1.891 3.263,-3.158 5.644,-3.205l0,-2.782l-0.588,0.124" style="fill:#444b5e;fill-rule:nonzero;"/>
        <clipPath id="_clip1">
            <rect x="173.706" y="22.556" width="226.8" height="67.966"/>
        </clipPath>
        <g clip-path="url(#_clip1)">
            <path d="M262.833,28.871c-2.219,0.056 -3.528,1.023 -3.959,2.868c0.569,0.496 1.335,0.711 2.098,0.678c1.677,-0.071 3.339,-1.348 2.868,-3.514c-0.353,-0.03 -0.689,-0.041 -1.007,-0.032m11.428,-6.315l-0.198,0c-1.582,0.051 -1.828,0.909 -5.245,1.751c-3.451,0.85 -6.785,0.033 -10.501,1.593c-11.097,4.654 -13.462,20.708 -23.548,26.405c-7.538,4.259 -14.829,6.149 -21.666,8.291c-4.494,1.408 -8.951,3.029 -13.023,6.538c-3.161,2.726 -4.03,4.841 -7.321,8.261c-3.36,3.476 -13.693,-2.676 -18.727,1.825c-0.206,0.189 -0.324,0.456 -0.324,0.735c0,0.287 0.124,0.561 0.341,0.75c1.09,0.954 3.164,3.226 5.139,3.928c-0.626,1.185 -4.164,4.677 -3.442,6.424c0.759,1.837 9.529,0.589 17.636,-4.306c3.775,-2.28 6.783,-5.566 12.664,-6.349c7.61,-1.014 16.377,0.652 25.186,1.92c-1.307,3.894 -3.929,6.487 -6.03,9.6c-0.652,0.702 1.307,0.78 3.539,0.356c4.03,-0.994 6.912,-1.794 9.956,-3.556c3.725,-2.169 4.291,-7.728 8.858,-8.93c2.21,3.396 7.704,4.54 11.94,2.727c0.235,-0.1 0.465,-0.21 0.69,-0.326c0.51,-0.445 0.211,-0.964 -0.102,-1.346c-0.149,-0.137 -0.292,-0.281 -0.429,-0.431c-2.384,-2.563 -2.93,-8.612 -1.872,-11.554c1.205,-3.347 2.396,-8.703 3.61,-13.126c1.304,-4.741 1.785,-10.742 3.362,-13.163c2.373,-3.641 4.996,-4.892 7.273,-6.946c2.277,-2.054 4.361,-4.053 4.29,-8.751c-0.033,-1.45 -0.745,-2.284 -2.056,-2.32m0.242,4.934c-0.471,3.241 -2.541,5.022 -4.988,6.741c-2.133,1.505 -4.496,2.954 -6.009,5.306c-1.547,2.406 -2.529,10.649 -4.93,18.788c-1.992,6.754 -4.959,13.435 -10.036,16.653c-0.329,0.208 -0.764,0.017 -0.834,-0.356c-0.356,-1.887 -0.285,-5.334 -0.87,-4.219c-0.735,2.097 -1.567,4.098 -2.54,5.958c-2.987,5.708 -7.308,10.08 -14.29,11.793c-0.046,0.01 -0.092,0.015 -0.139,0.015c-0.345,0 -0.628,-0.283 -0.628,-0.628c0,-0.128 0.039,-0.254 0.113,-0.359c3.221,-4.468 6.103,-9.275 6.455,-16.61c0.03,-0.633 -0.765,-0.922 -1.165,-0.431c-1.521,1.876 -1.896,6.337 -4.121,7.711c-1.747,0.189 -3.516,0.189 -5.298,0.083c-7.312,-0.439 -14.817,-2.639 -21.658,-0.442c-4.658,1.495 -9.55,5.748 -13.495,7.458c-4.637,1.999 -6.834,3.895 -12.689,3.765c-0.599,-0.806 2.443,-4.295 3.477,-5.8c0.329,-0.482 -0.376,-0.989 -1.036,-1.304c-1.586,-0.727 -3.176,-2.702 -4.868,-3.472c0.217,-0.4 0.984,-0.799 1.407,-1.043c3.84,-2.228 14.024,2.517 16.759,-0.17c1.689,-1.657 2.827,-3.112 3.974,-4.8c1.115,-1.635 2.807,-3.364 4.56,-4.796c0.744,-0.597 1.511,-1.164 2.299,-1.701c2.987,-2.044 4.631,-2.195 8.498,-3.632c4.921,-1.83 11.015,-3.435 16.294,-5.452c3.261,-1.248 6.808,-2.785 9.698,-4.942c0.688,-0.512 1.336,-1.059 1.937,-1.643c8.254,-8.06 9.891,-22.242 22.756,-23.565c1.558,-0.16 2.665,-0.227 3.826,-0.264c1.299,-0.036 2.584,-0.356 3.868,-0.969c0.396,-0.174 2.754,-1.601 3.551,-0.911c0.531,0.46 0.136,2.954 0.102,3.224" style="fill:#444b5e;fill-rule:nonzero;"/>
        </g>
    </g>
</svg>