<?xml version="1.0" encoding="UTF-8" standalone="no"?><!DOCTYPE svg PUBLIC "-//W3C//DTD SVG 1.1//EN" "http://www.w3.org/Graphics/SVG/1.1/DTD/svg11.dtd">
<svg width="100%" height="100%" viewBox="0 0 450 150" version="1.1"
    xmlns="http://www.w3.org/2000/svg"
    xmlns:xlink="http://www.w3.org/1999/xlink" xml:space="preserve" style="fill-rule:evenodd;clip-rule:evenodd;stroke-linejoin:round;stroke-miterlimit:2;">
    <rect id="MongoDBIcon" x="0" y="0" width="450" height="150" style="fill:none;"/>
    <g>
        <path d="M109.498,67.187c-4.223,-18.341 -13.031,-23.228 -15.264,-26.667c-0.935,-1.538 -1.749,-3.107 -2.443,-4.736c-0.121,1.629 -0.332,2.655 -1.75,3.891c-2.835,2.474 -14.811,12.097 -15.837,32.942c-0.935,19.427 14.51,31.403 16.561,32.64c1.569,0.754 3.469,0 4.404,-0.694c7.452,-5.038 17.618,-18.432 14.329,-37.376" style="fill:#10aa50;fill-rule:nonzero;"/>
        <path d="M92.123,94.608c-0.392,4.766 -0.694,7.542 -1.72,10.257c0,0 0.694,4.555 1.147,9.351l1.689,0c0.392,-3.379 0.995,-6.757 1.81,-10.075c-2.142,-0.996 -2.836,-5.34 -2.926,-9.533Z" style="fill:#b8c4c2;fill-rule:nonzero;"/>
        <path d="M95.381,104.412c-2.082,-0.965 -2.685,-5.46 -2.776,-9.653c0.513,-6.938 0.664,-13.877 0.453,-20.845c-0.121,-3.62 0.06,-33.726 -0.905,-38.13c0.664,1.478 1.418,2.926 2.232,4.344c2.232,3.469 10.95,8.356 15.113,26.787c3.258,18.975 -6.757,32.399 -14.117,37.497Z" style="fill:#12924f;fill-rule:nonzero;"/>
        <path d="M371.19,98.077c-2.564,0 -4.616,-2.051 -4.646,-4.615c0,-2.534 2.052,-4.586 4.616,-4.616c2.534,-0.03 4.645,1.991 4.675,4.555c0.031,1.237 -0.452,2.414 -1.327,3.319c-0.875,0.874 -2.081,1.357 -3.318,1.357Zm0,-8.808c-1.72,-0.031 -3.258,0.995 -3.922,2.564c-0.663,1.568 -0.301,3.378 0.905,4.585c1.207,1.207 3.017,1.569 4.586,0.935c1.598,-0.664 2.624,-2.172 2.624,-3.891c0.03,-1.116 -0.392,-2.202 -1.207,-2.987c-0.784,-0.784 -1.87,-1.237 -2.986,-1.206Zm1.116,7.089l-1.176,-2.564l-0.966,0l0,2.564l-0.724,0l0,-5.822l1.75,0c1.267,0 1.81,0.543 1.81,1.629c0,0.844 -0.392,1.387 -1.146,1.568l1.236,2.625l-0.784,0Zm-2.142,-3.168l1.026,0c0.814,0 1.146,-0.271 1.146,-1.025c0,-0.724 -0.301,-0.996 -1.237,-0.996l-0.935,0l0,2.021Z" style="fill:#21313c;fill-rule:nonzero;"/>
        <path d="M303.346,93.914c1.237,0.966 3.711,1.388 5.883,1.388c2.805,0 5.55,-0.543 8.235,-2.956c2.745,-2.504 4.646,-6.305 4.646,-12.399c0,-5.822 -2.233,-10.588 -6.788,-13.363c-2.594,-1.599 -5.943,-2.233 -9.744,-2.233c-1.086,0 -2.232,0.031 -2.865,0.332c-0.272,0.211 -0.453,0.513 -0.513,0.815c-0.121,1.055 -0.121,8.989 -0.121,13.665c0,4.796 0,11.493 0.121,12.308c0.06,0.724 0.392,1.93 1.146,2.443m-11.674,-32.187c0.995,0 4.766,0.181 6.546,0.181c3.288,0 5.55,-0.181 11.704,-0.181c5.159,0 9.473,1.388 12.58,4.042c3.77,3.258 5.761,7.783 5.761,13.273c0,7.813 -3.559,12.308 -7.149,14.872c-3.56,2.655 -8.205,4.163 -14.812,4.163c-3.499,0 -9.532,-0.121 -14.57,-0.181l-0.09,0c-0.242,-0.452 0.422,-2.262 0.814,-2.323c1.388,-0.151 1.75,-0.211 2.383,-0.452c1.056,-0.453 1.297,-0.996 1.418,-2.896c0.181,-3.59 0.121,-7.873 0.121,-12.73c0,-3.469 0.06,-10.227 -0.061,-12.368c-0.181,-1.81 -0.935,-2.263 -2.473,-2.625c-1.086,-0.211 -2.172,-0.392 -3.288,-0.513c-0.091,-0.331 0.784,-1.9 1.086,-2.262" style="fill:#21313c;fill-rule:nonzero;"/>
        <path d="M342.653,64.563c-0.211,0.06 -0.513,0.633 -0.513,0.935c-0.06,2.081 -0.121,7.511 -0.121,11.252c0.03,0.15 0.151,0.271 0.302,0.301c0.754,0.061 2.624,0.121 4.193,0.121c2.202,0 3.469,-0.302 4.193,-0.634c1.84,-0.935 2.715,-2.956 2.715,-5.158c0,-5.038 -3.499,-6.938 -8.688,-6.938c-0.694,0 -1.388,0.03 -2.081,0.121m13.212,23.107c0,-5.068 -3.74,-7.964 -10.528,-7.964c-0.301,0 -2.473,-0.06 -2.986,0.06c-0.151,0.061 -0.332,0.151 -0.332,0.272c0,3.65 -0.06,9.472 0.121,11.795c0.121,0.965 0.814,2.353 1.689,2.775c0.905,0.513 3.017,0.633 4.465,0.633c4.012,0 7.571,-2.262 7.571,-7.571m-23.71,-25.943c0.513,0 2.081,0.181 6.033,0.181c3.711,0 6.727,-0.121 10.347,-0.121c4.465,0 10.649,1.629 10.649,8.326c0,3.288 -2.323,5.943 -5.37,7.21c-0.151,0.06 -0.151,0.181 0,0.241c4.314,1.086 8.085,3.741 8.085,8.839c0,4.977 -3.077,8.084 -7.542,10.045c-2.745,1.207 -6.124,1.629 -9.532,1.629c-2.625,0 -9.654,-0.271 -13.545,-0.241c-0.392,-0.181 0.362,-2.021 0.724,-2.323c0.905,0 1.78,-0.151 2.624,-0.392c1.418,-0.362 1.569,-0.815 1.75,-2.896c0.121,-1.78 0.121,-8.205 0.121,-12.76c0,-6.245 0.06,-10.438 0,-12.519c-0.061,-1.629 -0.634,-2.142 -1.75,-2.444c-0.875,-0.181 -2.323,-0.332 -3.499,-0.513c-0.272,-0.301 0.603,-2.021 0.905,-2.262" style="fill:#21313c;fill-rule:nonzero;"/>
        <path d="M122.289,98.077c-0.151,-0.392 -0.211,-0.784 -0.181,-1.176c0,-0.272 0.06,-0.543 0.181,-0.785c0.754,-0.12 1.508,-0.271 2.262,-0.452c1.056,-0.272 1.448,-0.845 1.509,-2.172c0.15,-3.137 0.181,-8.99 0.12,-13.122l0,-0.121c0,-0.453 0,-1.056 -0.573,-1.478c-0.965,-0.604 -2.021,-1.086 -3.107,-1.388c-0.483,-0.151 -0.784,-0.392 -0.754,-0.694c0,-0.301 0.332,-0.663 0.965,-0.784c1.72,-0.181 6.184,-1.237 7.934,-2.051c0.181,0.241 0.271,0.513 0.241,0.814c0,0.181 -0.03,0.392 -0.06,0.573c-0.06,0.573 -0.091,1.237 -0.091,1.901c0,0.181 0.121,0.301 0.272,0.362c0.151,0.06 0.332,0 0.452,-0.091c3.349,-2.624 6.335,-3.559 7.874,-3.559c2.534,0 4.494,1.206 6.003,3.68c0.09,0.121 0.211,0.211 0.362,0.211c0.12,0 0.241,-0.06 0.301,-0.181c3.077,-2.323 6.124,-3.71 8.175,-3.71c4.797,0 7.693,3.589 7.693,9.623c0,1.719 -0.03,3.921 -0.03,5.973c-0.03,1.81 -0.03,3.499 -0.03,4.645c0,0.302 0.362,1.086 0.935,1.237c0.724,0.332 1.719,0.513 3.016,0.754l0.061,0c0.09,0.332 -0.121,1.689 -0.302,1.961c-0.332,0 -0.784,-0.03 -1.327,-0.06c-0.996,-0.061 -2.383,-0.121 -3.952,-0.121c-3.228,0 -4.887,0.06 -6.486,0.151c-0.121,-0.392 -0.151,-1.659 0,-1.931c0.634,-0.121 1.297,-0.271 1.961,-0.452c0.995,-0.332 1.297,-0.785 1.357,-2.142c0.031,-0.965 0.212,-9.412 -0.12,-11.403c-0.302,-2.081 -1.871,-4.525 -5.309,-4.525c-1.267,0 -3.319,0.513 -5.28,2.021c-0.12,0.121 -0.211,0.302 -0.211,0.483l0,0.03c0.242,1.086 0.242,2.353 0.242,4.284l0,3.378c-0.031,2.323 -0.031,4.525 0,6.215c0,1.116 0.693,1.387 1.236,1.598c0.302,0.091 0.543,0.121 0.785,0.181c0.452,0.121 0.935,0.242 1.659,0.362c0.09,0.483 0.09,0.966 -0.03,1.448c-0.03,0.181 -0.121,0.362 -0.211,0.513c-1.78,-0.06 -3.62,-0.121 -6.245,-0.121c-0.784,0 -2.111,0.031 -3.258,0.061c-0.935,0.03 -1.81,0.06 -2.323,0.06c-0.12,-0.332 -0.181,-0.664 -0.181,-1.026c0,-0.331 0.061,-0.663 0.212,-0.935l0.693,-0.12c0.634,-0.121 1.147,-0.212 1.66,-0.332c0.874,-0.302 1.206,-0.754 1.267,-1.87c0.15,-2.595 0.301,-10.046 -0.061,-11.886c-0.633,-3.017 -2.353,-4.525 -5.098,-4.525c-1.599,0 -3.62,0.784 -5.279,2.021c-0.332,0.302 -0.513,0.754 -0.483,1.177l0,3.077c0,3.74 -0.03,8.416 0.061,10.437c0.06,0.604 0.271,1.358 1.448,1.599c0.241,0.09 0.693,0.151 1.206,0.241c0.302,0.061 0.604,0.121 0.935,0.181c0.121,0.634 0.061,1.328 -0.15,1.961c-0.513,0 -1.147,-0.03 -1.871,-0.06c-1.086,-0.061 -2.473,-0.121 -4.042,-0.121c-1.84,0 -3.107,0.06 -4.133,0.121c-0.694,0.03 -1.297,0.06 -1.9,0.06" style="fill:#21313c;fill-rule:nonzero;"/>
        <path d="M180.841,76.267c-0.965,-0.03 -1.93,0.241 -2.775,0.784c-2.021,1.207 -3.047,3.62 -3.047,7.21c0,6.667 3.379,11.342 8.236,11.342c1.297,0.031 2.564,-0.422 3.559,-1.266c1.478,-1.177 2.293,-3.651 2.293,-7.059c0,-6.577 -3.318,-11.011 -8.266,-11.011m0.936,21.81c-8.749,0 -11.886,-6.365 -11.886,-12.278c0,-4.162 1.72,-7.39 5.098,-9.653c2.383,-1.448 5.098,-2.232 7.904,-2.292c6.697,0 11.372,4.736 11.372,11.523c0,4.646 -1.87,8.266 -5.399,10.558c-1.69,1.026 -4.646,2.142 -7.089,2.142" style="fill:#21313c;fill-rule:nonzero;"/>
        <path d="M270.767,76.267c-0.996,-0.03 -1.961,0.241 -2.776,0.784c-2.051,1.207 -3.077,3.62 -3.077,7.21c0,6.667 3.379,11.342 8.236,11.342c1.327,0.031 2.594,-0.422 3.59,-1.266c1.478,-1.177 2.262,-3.651 2.262,-7.059c0,-6.577 -3.288,-11.011 -8.235,-11.011m0.935,21.81c-8.779,0 -11.886,-6.365 -11.886,-12.278c0,-4.162 1.72,-7.39 5.098,-9.653c2.384,-1.448 5.099,-2.232 7.904,-2.292c6.697,0 11.373,4.736 11.373,11.523c0,4.646 -1.871,8.266 -5.4,10.558c-1.72,1.026 -4.646,2.142 -7.089,2.142" style="fill:#21313c;fill-rule:nonzero;"/>
        <path d="M240.993,76.056c-2.715,0 -4.495,2.142 -4.495,5.4c0,3.258 1.508,7.149 5.792,7.149c0.754,0 2.081,-0.302 2.745,-1.026c0.995,-0.905 1.659,-2.745 1.659,-4.706c0,-4.253 -2.112,-6.817 -5.671,-6.817m-0.362,22.594c-0.784,0 -1.539,0.181 -2.202,0.543c-2.172,1.358 -3.198,2.715 -3.198,4.284c0,1.448 0.603,2.624 1.84,3.68c1.539,1.267 3.59,1.87 6.275,1.87c5.339,0 7.692,-2.805 7.692,-5.55c0,-1.931 -0.965,-3.228 -3.016,-3.952c-1.569,-0.573 -4.194,-0.875 -7.391,-0.875m0.362,13.273c-3.198,0 -5.49,-0.663 -7.451,-2.141c-1.901,-1.448 -2.775,-3.59 -2.775,-5.068c0.03,-0.935 0.392,-1.871 1.055,-2.564c0.543,-0.604 1.84,-1.78 4.827,-3.771c0.09,-0.03 0.151,-0.121 0.151,-0.242c0,-0.09 -0.091,-0.211 -0.181,-0.241c-2.474,-0.905 -3.198,-2.413 -3.439,-3.228l0,-0.12c-0.091,-0.332 -0.151,-0.634 0.301,-0.935c0.332,-0.242 0.875,-0.574 1.479,-0.905c0.814,-0.453 1.629,-0.966 2.383,-1.509c0.06,-0.09 0.12,-0.211 0.09,-0.332c-0.03,-0.12 -0.09,-0.211 -0.211,-0.271c-3.62,-1.177 -5.43,-3.831 -5.43,-7.843c-0.03,-2.534 1.207,-4.948 3.349,-6.426c1.448,-1.116 5.098,-2.473 7.481,-2.473l0.151,0c2.413,0.06 3.801,0.543 5.701,1.236c1.086,0.393 2.232,0.574 3.379,0.513c2.021,0 2.896,-0.603 3.68,-1.327c0.121,0.302 0.181,0.664 0.181,0.995c0.06,0.845 -0.181,1.66 -0.664,2.353c-0.392,0.574 -1.387,0.966 -2.262,0.966l-0.272,0c-0.482,-0.03 -0.935,-0.121 -1.387,-0.242l-0.242,0.091c-0.06,0.09 -0.03,0.211 0.031,0.362c0.03,0.03 0.03,0.06 0.03,0.09c0.181,0.724 0.301,1.448 0.332,2.203c0,4.193 -1.69,6.033 -3.53,7.39c-1.75,1.297 -3.861,2.112 -6.093,2.293c-0.031,0 -0.272,0.03 -0.694,0.06c-0.272,0.03 -0.634,0.061 -0.694,0.061l-0.06,0c-0.393,0.12 -1.418,0.603 -1.418,1.508c0,0.724 0.452,1.659 2.715,1.84l1.448,0.091c2.956,0.211 6.666,0.452 8.416,1.025c2.383,0.815 3.952,3.047 3.891,5.49c0,3.771 -2.745,7.331 -7.33,9.503c-2.172,0.995 -4.555,1.538 -6.938,1.508" style="fill:#21313c;fill-rule:nonzero;"/>
        <path d="M227.207,95.784c-1.297,-0.181 -2.233,-0.362 -3.319,-0.874c-0.241,-0.211 -0.362,-0.483 -0.422,-0.815c-0.121,-1.749 -0.121,-6.908 -0.121,-10.286c0,-2.746 -0.452,-5.159 -1.628,-6.878c-1.388,-1.931 -3.379,-3.077 -5.943,-3.077c-2.263,0 -5.279,1.538 -7.783,3.65c-0.06,0.06 -0.453,0.422 -0.453,-0.151c0.031,-0.543 0.121,-1.689 0.151,-2.413c0.061,-0.392 -0.09,-0.815 -0.362,-1.086c-1.629,0.814 -6.214,1.9 -7.933,2.081c-1.237,0.241 -1.539,1.418 -0.212,1.84c1.056,0.272 2.082,0.724 3.017,1.297c0.513,0.393 0.453,0.966 0.453,1.418c0.06,3.862 0.06,9.744 -0.121,12.942c-0.06,1.267 -0.392,1.719 -1.327,1.96l0.09,-0.03c-0.724,0.181 -1.448,0.302 -2.172,0.392c-0.271,0.302 -0.271,1.961 0,2.293c0.603,0 3.56,-0.151 6.003,-0.151c3.379,0 5.128,0.151 6.003,0.151c0.332,-0.392 0.453,-1.931 0.211,-2.293c-0.784,-0.03 -1.598,-0.151 -2.383,-0.332c-0.935,-0.241 -1.146,-0.693 -1.206,-1.719c-0.121,-2.685 -0.121,-8.416 -0.121,-12.308c0,-1.086 0.271,-1.599 0.633,-1.9c1.177,-1.026 3.077,-1.72 4.767,-1.72c1.629,0 2.745,0.513 3.559,1.207c0.935,0.814 1.539,1.991 1.659,3.228c0.242,2.172 0.181,6.546 0.181,10.317c0,2.051 -0.181,2.564 -0.935,2.805c-0.362,0.151 -1.297,0.332 -2.383,0.452c-0.362,0.332 -0.241,1.931 0,2.293c1.508,0 3.258,-0.181 5.822,-0.181c3.198,0 5.219,0.181 6.033,0.181c0.362,-0.422 0.483,-1.9 0.242,-2.293" style="fill:#21313c;fill-rule:nonzero;"/>
    </g>
</svg>