<?xml version="1.0" encoding="UTF-8" standalone="no"?><!DOCTYPE svg PUBLIC "-//W3C//DTD SVG 1.1//EN" "http://www.w3.org/Graphics/SVG/1.1/DTD/svg11.dtd">
<svg width="100%" height="100%" viewBox="0 0 256 256" version="1.1"
    xmlns="http://www.w3.org/2000/svg"
    xmlns:xlink="http://www.w3.org/1999/xlink" xml:space="preserve" style="fill-rule:evenodd;clip-rule:evenodd;stroke-linejoin:round;stroke-miterlimit:1.41421;">
    <rect id="outer" x="0" y="0" width="256" height="256" style="fill:none;"/>
    <path d="M203.528,37.99c-21.162,-17.757 -47.903,-27.49 -75.528,-27.49c-64.85,0 -117.5,52.65 -117.5,117.5c0,64.85 52.65,117.5 117.5,117.5c27.625,0 54.366,-9.733 75.528,-27.49l-7.208,-8.589c-19.142,16.062 -43.331,24.867 -68.32,24.867c-58.662,0 -106.288,-47.626 -106.288,-106.288c0,-58.662 47.626,-106.288 106.288,-106.288c24.989,0 49.178,8.805 68.32,24.867l7.208,-8.589Z" style="fill:#00b6ff;"/>
</svg>