<?xml version="1.0" encoding="UTF-8" standalone="no"?>
<!DOCTYPE svg PUBLIC "-//W3C//DTD SVG 1.1//EN" "http://www.w3.org/Graphics/SVG/1.1/DTD/svg11.dtd">
<svg width="100%" height="100%" viewBox="0 0 300 300" version="1.1" xmlns="http://www.w3.org/2000/svg" xmlns:xlink="http://www.w3.org/1999/xlink" xml:space="preserve" style="fill-rule:evenodd;clip-rule:evenodd;stroke-linejoin:round;stroke-miterlimit:2;">
    <g>
        <path d="M26,163.476L27.968,163.476L31.76,178.524L36.128,163.476L38.048,163.476L42.392,178.524L46.184,163.476L48.152,163.476L43.616,181.14L41.552,181.14L37.088,166.14L32.6,181.14L30.536,181.14L26,163.476Z" style="fill:rgb(133,133,133);fill-rule:nonzero;"/>
        <path d="M49.784,163.476L51.752,163.476L55.544,178.524L59.912,163.476L61.832,163.476L66.176,178.524L69.968,163.476L71.936,163.476L67.4,181.14L65.336,181.14L60.872,166.14L56.384,181.14L54.32,181.14L49.784,163.476Z" style="fill:rgb(133,133,133);fill-rule:nonzero;"/>
        <path d="M73.568,163.476L75.536,163.476L79.328,178.524L83.696,163.476L85.616,163.476L89.96,178.524L93.752,163.476L95.72,163.476L91.184,181.14L89.12,181.14L84.656,166.14L80.168,181.14L78.104,181.14L73.568,163.476Z" style="fill:rgb(133,133,133);fill-rule:nonzero;"/>
        <path d="M97.448,181.164C97.336,181.164 97.244,181.128 97.172,181.056C97.1,180.984 97.064,180.892 97.064,180.78L97.064,178.86C97.064,178.604 97.192,178.476 97.448,178.476L98.504,178.476C98.76,178.476 98.888,178.604 98.888,178.86L98.888,180.78C98.888,181.036 98.76,181.164 98.504,181.164L97.448,181.164Z" style="fill:rgb(133,133,133);fill-rule:nonzero;"/>
        <path d="M102.224,163.476L109.208,163.476C111.272,163.476 112.756,164.212 113.66,165.684C114.564,167.156 115.016,169.364 115.016,172.308C115.016,175.124 114.524,177.3 113.54,178.836C112.556,180.372 111.112,181.14 109.208,181.14L102.224,181.14L102.224,163.476ZM109.064,179.436C110.424,179.436 111.44,178.808 112.112,177.552C112.784,176.296 113.12,174.548 113.12,172.308C113.12,170.564 112.98,169.172 112.7,168.132C112.42,167.092 111.984,166.344 111.392,165.888C110.8,165.432 110.024,165.204 109.064,165.204L104.144,165.204L104.144,179.436L109.064,179.436Z" style="fill:rgb(133,133,133);fill-rule:nonzero;"/>
        <path d="M123.056,163.476L125.504,163.476L131.552,181.14L129.584,181.14L127.808,176.1L120.704,176.1L118.976,181.14L117.008,181.14L123.056,163.476ZM127.328,174.372L124.28,165.156L121.184,174.372L127.328,174.372Z" style="fill:rgb(133,133,133);fill-rule:nonzero;"/>
        <path d="M137.024,165.204L131.552,165.204L131.552,163.476L144.368,163.476L144.368,165.204L138.92,165.204L138.92,181.14L137.024,181.14L137.024,165.204Z" style="fill:rgb(133,133,133);fill-rule:nonzero;"/>
        <path d="M149.96,181.236C148.952,181.236 148.1,181 147.404,180.528C146.708,180.056 146.36,179.148 146.36,177.804L146.36,167.028C146.36,165.78 146.696,164.876 147.368,164.316C148.04,163.756 148.864,163.476 149.84,163.476C152.4,163.524 154.392,163.58 155.816,163.644L157.232,163.692L157.232,165.228L150.32,165.228C148.96,165.228 148.28,165.932 148.28,167.34L148.28,171.516L156.176,171.636L156.176,173.1L148.28,173.22L148.28,177.372C148.28,178.188 148.472,178.74 148.856,179.028C149.24,179.316 149.76,179.46 150.416,179.46L157.232,179.46L157.232,180.996C154.192,181.156 151.768,181.236 149.96,181.236Z" style="fill:rgb(133,133,133);fill-rule:nonzero;"/>
        <path d="M160.784,163.476L162.344,163.476L171.56,177.852L171.56,163.476L173.456,163.476L173.456,181.14L171.896,181.14L162.68,166.764L162.68,181.14L160.784,181.14L160.784,163.476Z" style="fill:rgb(133,133,133);fill-rule:nonzero;"/>
        <path d="M181.856,181.284C181.104,181.284 180.172,181.24 179.06,181.152C177.948,181.064 177.096,180.964 176.504,180.852L176.504,179.388C177.752,179.516 179.512,179.58 181.784,179.58C183,179.58 183.944,179.388 184.616,179.004C185.288,178.62 185.624,177.924 185.624,176.916L185.624,175.716C185.624,174.052 184.744,173.22 182.984,173.22L181.088,173.22C179.568,173.22 178.412,172.888 177.62,172.224C176.828,171.56 176.432,170.468 176.432,168.948L176.432,167.94C176.432,166.324 176.864,165.152 177.728,164.424C178.592,163.696 179.872,163.332 181.568,163.332C182.288,163.332 183.156,163.384 184.172,163.488C185.188,163.592 186.016,163.708 186.656,163.836L186.656,165.276C184.496,165.132 182.864,165.06 181.76,165.06C180.576,165.06 179.696,165.272 179.12,165.696C178.544,166.12 178.256,166.892 178.256,168.012L178.256,168.828C178.256,169.756 178.5,170.416 178.988,170.808C179.476,171.2 180.2,171.396 181.16,171.396L183.2,171.396C184.592,171.396 185.648,171.768 186.368,172.512C187.088,173.256 187.448,174.252 187.448,175.5L187.448,176.868C187.448,178.516 186.948,179.664 185.948,180.312C184.948,180.96 183.584,181.284 181.856,181.284Z" style="fill:rgb(133,133,133);fill-rule:nonzero;"/>
        <path d="M194.312,181.236C193.304,181.236 192.452,181 191.756,180.528C191.06,180.056 190.712,179.148 190.712,177.804L190.712,167.028C190.712,165.78 191.048,164.876 191.72,164.316C192.392,163.756 193.216,163.476 194.192,163.476C196.752,163.524 198.744,163.58 200.168,163.644L201.584,163.692L201.584,165.228L194.672,165.228C193.312,165.228 192.632,165.932 192.632,167.34L192.632,171.516L200.528,171.636L200.528,173.1L192.632,173.22L192.632,177.372C192.632,178.188 192.824,178.74 193.208,179.028C193.592,179.316 194.112,179.46 194.768,179.46L201.584,179.46L201.584,180.996C198.544,181.156 196.12,181.236 194.312,181.236Z" style="fill:rgb(133,133,133);fill-rule:nonzero;"/>
        <path d="M205.136,163.476L206.696,163.476L215.912,177.852L215.912,163.476L217.808,163.476L217.808,181.14L216.248,181.14L207.032,166.764L207.032,181.14L205.136,181.14L205.136,163.476Z" style="fill:rgb(133,133,133);fill-rule:nonzero;"/>
        <path d="M221.216,181.164C221.104,181.164 221.012,181.128 220.94,181.056C220.868,180.984 220.832,180.892 220.832,180.78L220.832,178.86C220.832,178.604 220.96,178.476 221.216,178.476L222.272,178.476C222.528,178.476 222.656,178.604 222.656,178.86L222.656,180.78C222.656,181.036 222.528,181.164 222.272,181.164L221.216,181.164Z" style="fill:rgb(133,133,133);fill-rule:nonzero;"/>
        <path d="M231.296,181.284C229.776,181.284 228.576,181.048 227.696,180.576C226.816,180.104 226.16,179.22 225.728,177.924C225.296,176.628 225.08,174.74 225.08,172.26C225.08,169.908 225.304,168.088 225.752,166.8C226.2,165.512 226.88,164.612 227.792,164.1C228.704,163.588 229.92,163.332 231.44,163.332C232.176,163.332 233.02,163.392 233.972,163.512C234.924,163.632 235.768,163.788 236.504,163.98L236.504,165.396C235.944,165.316 235.224,165.236 234.344,165.156C233.464,165.076 232.592,165.036 231.728,165.036C230.528,165.036 229.592,165.232 228.92,165.624C228.248,166.016 227.756,166.728 227.444,167.76C227.132,168.792 226.976,170.3 226.976,172.284C226.976,174.332 227.124,175.872 227.42,176.904C227.716,177.936 228.192,178.64 228.848,179.016C229.504,179.392 230.448,179.58 231.68,179.58C233.712,179.58 235.32,179.476 236.504,179.268L236.504,180.708C235.768,180.884 234.94,181.024 234.02,181.128C233.1,181.232 232.192,181.284 231.296,181.284Z" style="fill:rgb(133,133,133);fill-rule:nonzero;"/>
        <path d="M245.6,181.284C243.936,181.284 242.628,181.064 241.676,180.624C240.724,180.184 240.004,179.328 239.516,178.056C239.028,176.784 238.784,174.892 238.784,172.38C238.784,169.884 239.036,167.984 239.54,166.68C240.044,165.376 240.776,164.492 241.736,164.028C242.696,163.564 243.984,163.332 245.6,163.332C247.264,163.332 248.576,163.56 249.536,164.016C250.496,164.472 251.216,165.352 251.696,166.656C252.176,167.96 252.416,169.868 252.416,172.38C252.416,174.892 252.172,176.784 251.684,178.056C251.196,179.328 250.476,180.184 249.524,180.624C248.572,181.064 247.264,181.284 245.6,181.284ZM245.6,179.58C246.88,179.58 247.86,179.404 248.54,179.052C249.22,178.7 249.72,178.012 250.04,176.988C250.36,175.964 250.52,174.428 250.52,172.38C250.52,170.252 250.36,168.668 250.04,167.628C249.72,166.588 249.22,165.896 248.54,165.552C247.86,165.208 246.88,165.036 245.6,165.036C244.384,165.036 243.432,165.208 242.744,165.552C242.056,165.896 241.54,166.596 241.196,167.652C240.852,168.708 240.68,170.284 240.68,172.38C240.68,174.444 240.832,175.984 241.136,177C241.44,178.016 241.932,178.7 242.612,179.052C243.292,179.404 244.288,179.58 245.6,179.58Z" style="fill:rgb(133,133,133);fill-rule:nonzero;"/>
        <path d="M270.176,181.14L268.496,166.476L264.248,181.14L262.496,181.14L258.176,166.596L256.568,181.14L254.72,181.14L256.736,163.476L258.68,163.476L263.384,178.74L267.992,163.476L269.96,163.476L272.024,181.14L270.176,181.14Z" style="fill:rgb(133,133,133);fill-rule:nonzero;"/>
        <path d="M32.216,122.034C30.696,122.034 29.496,121.798 28.616,121.326C27.736,120.854 27.08,119.97 26.648,118.674C26.216,117.378 26,115.49 26,113.01C26,110.658 26.224,108.838 26.672,107.55C27.12,106.262 27.8,105.362 28.712,104.85C29.624,104.338 30.84,104.082 32.36,104.082C33.096,104.082 33.94,104.142 34.892,104.262C35.844,104.382 36.688,104.538 37.424,104.73L37.424,106.146C36.864,106.066 36.144,105.986 35.264,105.906C34.384,105.826 33.512,105.786 32.648,105.786C31.448,105.786 30.512,105.982 29.84,106.374C29.168,106.766 28.676,107.478 28.364,108.51C28.052,109.542 27.896,111.05 27.896,113.034C27.896,115.082 28.044,116.622 28.34,117.654C28.636,118.686 29.112,119.39 29.768,119.766C30.424,120.142 31.368,120.33 32.6,120.33C34.632,120.33 36.24,120.226 37.424,120.018L37.424,121.458C36.688,121.634 35.86,121.774 34.94,121.878C34.02,121.982 33.112,122.034 32.216,122.034Z" style="fill:rgb(133,133,133);fill-rule:nonzero;"/>
        <path d="M40.352,109.074L41.792,109.074L42.248,111.306C42.872,110.554 43.544,109.97 44.264,109.554C44.984,109.138 45.776,108.93 46.64,108.93C47.072,108.93 47.472,108.97 47.84,109.05L47.84,110.994C47.12,110.914 46.656,110.874 46.448,110.874C45.6,110.874 44.868,111.026 44.252,111.33C43.636,111.634 42.968,112.122 42.248,112.794L42.248,121.89L40.352,121.89L40.352,109.074Z" style="fill:rgb(133,133,133);fill-rule:nonzero;"/>
        <path d="M55.136,122.034C53.76,122.034 52.692,121.834 51.932,121.434C51.172,121.034 50.624,120.362 50.288,119.418C49.952,118.474 49.784,117.154 49.784,115.458C49.784,113.746 49.956,112.418 50.3,111.474C50.644,110.53 51.2,109.866 51.968,109.482C52.736,109.098 53.8,108.906 55.16,108.906C56.328,108.906 57.264,109.034 57.968,109.29C58.672,109.546 59.192,109.982 59.528,110.598C59.864,111.214 60.032,112.066 60.032,113.154C60.032,114.242 59.716,115.03 59.084,115.518C58.452,116.006 57.552,116.25 56.384,116.25L51.68,116.25C51.696,117.354 51.808,118.206 52.016,118.806C52.224,119.406 52.608,119.846 53.168,120.126C53.728,120.406 54.536,120.546 55.592,120.546L59.72,120.546L59.72,121.698C58.856,121.81 58.088,121.894 57.416,121.95C56.744,122.006 55.984,122.034 55.136,122.034ZM56.216,115.002C56.952,115.002 57.488,114.866 57.824,114.594C58.16,114.322 58.328,113.85 58.328,113.178C58.328,112.106 58.092,111.366 57.62,110.958C57.148,110.55 56.328,110.346 55.16,110.346C54.232,110.346 53.52,110.482 53.024,110.754C52.528,111.026 52.176,111.49 51.968,112.146C51.76,112.802 51.656,113.754 51.656,115.002L56.216,115.002Z" style="fill:rgb(133,133,133);fill-rule:nonzero;"/>
        <path d="M65.72,122.034C64.76,122.034 63.98,121.746 63.38,121.17C62.78,120.594 62.48,119.81 62.48,118.818L62.48,117.906C62.48,116.866 62.82,116.042 63.5,115.434C64.18,114.826 65.176,114.522 66.488,114.522L70.832,114.522L70.832,112.938C70.832,112.074 70.596,111.434 70.124,111.018C69.652,110.602 68.784,110.394 67.52,110.394L63.536,110.394L63.536,109.266C65.04,109.01 66.6,108.882 68.216,108.882C69.768,108.882 70.908,109.198 71.636,109.83C72.364,110.462 72.728,111.466 72.728,112.842L72.728,121.89L71.264,121.89L70.904,120.426C70.792,120.522 70.444,120.706 69.86,120.978C69.276,121.25 68.608,121.494 67.856,121.71C67.104,121.926 66.392,122.034 65.72,122.034ZM66.56,120.618C66.992,120.618 67.52,120.538 68.144,120.378C68.768,120.218 69.332,120.05 69.836,119.874C70.34,119.698 70.672,119.578 70.832,119.514L70.832,115.482L66.92,115.65C66.04,115.682 65.396,115.898 64.988,116.298C64.58,116.698 64.376,117.242 64.376,117.93L64.376,118.506C64.376,119.242 64.588,119.778 65.012,120.114C65.436,120.45 65.952,120.618 66.56,120.618Z" style="fill:rgb(133,133,133);fill-rule:nonzero;"/>
        <path d="M80.552,121.89C79.288,121.89 78.36,121.566 77.768,120.918C77.176,120.27 76.896,119.21 76.928,117.738L77,110.634L74.96,110.634L74.96,109.41L77.024,109.074L77.336,105.498L78.8,105.498L78.8,109.074L82.496,109.074L82.496,110.634L78.8,110.634L78.8,117.738C78.8,118.714 78.984,119.382 79.352,119.742C79.72,120.102 80.184,120.306 80.744,120.354L82.304,120.498L82.304,121.89L80.552,121.89Z" style="fill:rgb(133,133,133);fill-rule:nonzero;"/>
        <path d="M90.008,122.034C88.632,122.034 87.564,121.834 86.804,121.434C86.044,121.034 85.496,120.362 85.16,119.418C84.824,118.474 84.656,117.154 84.656,115.458C84.656,113.746 84.828,112.418 85.172,111.474C85.516,110.53 86.072,109.866 86.84,109.482C87.608,109.098 88.672,108.906 90.032,108.906C91.2,108.906 92.136,109.034 92.84,109.29C93.544,109.546 94.064,109.982 94.4,110.598C94.736,111.214 94.904,112.066 94.904,113.154C94.904,114.242 94.588,115.03 93.956,115.518C93.324,116.006 92.424,116.25 91.256,116.25L86.552,116.25C86.568,117.354 86.68,118.206 86.888,118.806C87.096,119.406 87.48,119.846 88.04,120.126C88.6,120.406 89.408,120.546 90.464,120.546L94.592,120.546L94.592,121.698C93.728,121.81 92.96,121.894 92.288,121.95C91.616,122.006 90.856,122.034 90.008,122.034ZM91.088,115.002C91.824,115.002 92.36,114.866 92.696,114.594C93.032,114.322 93.2,113.85 93.2,113.178C93.2,112.106 92.964,111.366 92.492,110.958C92.02,110.55 91.2,110.346 90.032,110.346C89.104,110.346 88.392,110.482 87.896,110.754C87.4,111.026 87.048,111.49 86.84,112.146C86.632,112.802 86.528,113.754 86.528,115.002L91.088,115.002Z" style="fill:rgb(133,133,133);fill-rule:nonzero;"/>
        <path d="M102.248,122.034C100.664,122.034 99.5,121.514 98.756,120.474C98.012,119.434 97.64,117.802 97.64,115.578C97.64,113.978 97.8,112.69 98.12,111.714C98.44,110.738 98.952,110.026 99.656,109.578C100.36,109.13 101.304,108.906 102.488,108.906C103.704,108.906 105.016,109.162 106.424,109.674L106.424,103.578L108.32,103.578L108.32,121.89L106.784,121.89L106.424,120.594C106.04,120.93 105.424,121.254 104.576,121.566C103.728,121.878 102.952,122.034 102.248,122.034ZM102.8,120.474C103.472,120.474 104.092,120.374 104.66,120.174C105.228,119.974 105.816,119.714 106.424,119.394L106.424,111.018C105.672,110.794 105.06,110.634 104.588,110.538C104.116,110.442 103.584,110.394 102.992,110.394C102.144,110.394 101.472,110.55 100.976,110.862C100.48,111.174 100.116,111.698 99.884,112.434C99.652,113.17 99.536,114.194 99.536,115.506C99.536,117.298 99.784,118.574 100.28,119.334C100.776,120.094 101.616,120.474 102.8,120.474Z" style="fill:rgb(133,133,133);fill-rule:nonzero;"/>
        <path d="M118.664,106.794C118.552,106.794 118.46,106.758 118.388,106.686C118.316,106.614 118.28,106.522 118.28,106.41L118.28,104.538C118.28,104.282 118.408,104.154 118.664,104.154L120.008,104.154C120.248,104.154 120.368,104.282 120.368,104.538L120.368,106.41C120.368,106.666 120.248,106.794 120.008,106.794L118.664,106.794ZM118.376,109.074L120.272,109.074L120.272,121.89L118.376,121.89L118.376,109.074Z" style="fill:rgb(133,133,133);fill-rule:nonzero;"/>
        <path d="M123.92,109.074L125.408,109.074L125.816,110.49C126.488,110.026 127.232,109.638 128.048,109.326C128.864,109.014 129.68,108.858 130.496,108.858C131.824,108.858 132.816,109.266 133.472,110.082C134.128,110.898 134.456,111.93 134.456,113.178L134.456,121.89L132.56,121.89L132.56,113.394C132.56,112.562 132.324,111.886 131.852,111.366C131.38,110.846 130.728,110.586 129.896,110.586C129.128,110.586 128.444,110.686 127.844,110.886C127.244,111.086 126.568,111.402 125.816,111.834L125.816,121.89L123.92,121.89L123.92,109.074Z" style="fill:rgb(133,133,133);fill-rule:nonzero;"/>
        <g transform="matrix(1,0,0,1,-33.7511,103.568)">
            <path d="M64.529,48.81C63.269,48.81 62.229,48.62 61.409,48.24C60.589,47.86 59.979,47.26 59.579,46.44C59.179,45.62 58.979,44.56 58.979,43.26L58.979,26.55L64.169,26.55L64.169,42.39C64.169,42.81 64.234,43.15 64.364,43.41C64.494,43.67 64.694,43.86 64.964,43.98C65.234,44.1 65.549,44.16 65.909,44.16L72.659,44.16L72.659,48.81L64.529,48.81Z" style="fill:rgb(133,133,133);fill-rule:nonzero;"/>
            <path d="M79.289,48.99C77.869,48.99 76.754,48.555 75.944,47.685C75.134,46.815 74.729,45.63 74.729,44.13L74.729,32.67L79.919,32.67L79.919,42.51C79.919,43.27 80.099,43.78 80.459,44.04C80.819,44.3 81.289,44.43 81.869,44.43C82.269,44.43 82.734,44.33 83.264,44.13C83.794,43.93 84.229,43.68 84.569,43.38L84.569,32.67L89.729,32.67L89.729,48.81L85.439,48.81L84.569,47.22C83.869,47.66 83.064,48.065 82.154,48.435C81.244,48.805 80.289,48.99 79.289,48.99Z" style="fill:rgb(133,133,133);fill-rule:nonzero;"/>
            <path d="M92.729,48.81L92.729,32.67L97.019,32.67L97.919,34.26C98.459,33.78 99.164,33.35 100.034,32.97C100.904,32.59 101.799,32.4 102.719,32.4C104.079,32.4 105.119,32.66 105.839,33.18C106.559,33.7 107.054,34.41 107.324,35.31C107.594,36.21 107.729,37.2 107.729,38.28L107.729,48.81L102.539,48.81L102.539,38.97C102.539,38.51 102.459,38.14 102.299,37.86C102.139,37.58 101.919,37.375 101.639,37.245C101.359,37.115 101.029,37.05 100.649,37.05C100.309,37.05 99.969,37.095 99.629,37.185C99.289,37.275 98.979,37.4 98.699,37.56C98.419,37.72 98.159,37.9 97.919,38.1L97.919,48.81L92.729,48.81Z" style="fill:rgb(133,133,133);fill-rule:nonzero;"/>
            <path d="M114.209,48.99C112.969,48.99 111.969,48.625 111.209,47.895C110.449,47.165 110.069,46.17 110.069,44.91L110.069,43.35C110.069,42.13 110.504,41.12 111.374,40.32C112.244,39.52 113.609,39.12 115.469,39.12L119.129,39.12L119.129,38.34C119.129,37.9 119.049,37.54 118.889,37.26C118.729,36.98 118.419,36.78 117.959,36.66C117.499,36.54 116.789,36.48 115.829,36.48L111.089,36.48L111.089,33.51C111.889,33.21 112.824,32.965 113.894,32.775C114.964,32.585 116.259,32.48 117.779,32.46C119.119,32.46 120.279,32.62 121.259,32.94C122.239,33.26 122.994,33.815 123.524,34.605C124.054,35.395 124.319,36.52 124.319,37.98L124.319,48.81L120.209,48.81L119.399,47.16C119.219,47.32 118.974,47.505 118.664,47.715C118.354,47.925 117.974,48.13 117.524,48.33C117.074,48.53 116.569,48.69 116.009,48.81C115.449,48.93 114.849,48.99 114.209,48.99ZM116.879,45.42C117.019,45.44 117.184,45.43 117.374,45.39C117.564,45.35 117.749,45.305 117.929,45.255C118.109,45.205 118.284,45.155 118.454,45.105C118.624,45.055 118.764,45.005 118.874,44.955C118.984,44.905 119.069,44.87 119.129,44.85L119.129,41.55L117.209,41.73C116.549,41.81 116.054,41.985 115.724,42.255C115.394,42.525 115.229,42.91 115.229,43.41L115.229,44.04C115.229,44.38 115.299,44.655 115.439,44.865C115.579,45.075 115.774,45.22 116.024,45.3C116.274,45.38 116.559,45.42 116.879,45.42Z" style="fill:rgb(133,133,133);fill-rule:nonzero;"/>
            <path d="M134.519,48.81L137.129,26.55L142.049,26.55L146.879,42.84L151.679,26.55L156.539,26.55L159.179,48.81L154.199,48.81L152.369,33.54L153.149,33.57L149.249,48.81L144.389,48.81L140.459,33.57L141.299,33.54L139.529,48.81L134.519,48.81Z" style="fill:rgb(133,133,133);fill-rule:nonzero;"/>
            <path d="M168.659,48.96C167.279,48.96 166.104,48.815 165.134,48.525C164.164,48.235 163.379,47.765 162.779,47.115C162.179,46.465 161.749,45.615 161.489,44.565C161.229,43.515 161.099,42.23 161.099,40.71C161.099,39.07 161.234,37.715 161.504,36.645C161.774,35.575 162.209,34.73 162.809,34.11C163.409,33.49 164.194,33.05 165.164,32.79C166.134,32.53 167.299,32.4 168.659,32.4C170.059,32.4 171.239,32.535 172.199,32.805C173.159,33.075 173.934,33.525 174.524,34.155C175.114,34.785 175.549,35.635 175.829,36.705C176.109,37.775 176.249,39.11 176.249,40.71C176.249,42.29 176.119,43.61 175.859,44.67C175.599,45.73 175.174,46.575 174.584,47.205C173.994,47.835 173.214,48.285 172.244,48.555C171.274,48.825 170.079,48.96 168.659,48.96ZM168.659,44.85C169.119,44.85 169.499,44.805 169.799,44.715C170.099,44.625 170.339,44.445 170.519,44.175C170.699,43.905 170.834,43.49 170.924,42.93C171.014,42.37 171.059,41.62 171.059,40.68C171.059,39.74 171.014,38.99 170.924,38.43C170.834,37.87 170.699,37.455 170.519,37.185C170.339,36.915 170.099,36.74 169.799,36.66C169.499,36.58 169.119,36.54 168.659,36.54C168.219,36.54 167.849,36.58 167.549,36.66C167.249,36.74 167.004,36.915 166.814,37.185C166.624,37.455 166.489,37.87 166.409,38.43C166.329,38.99 166.289,39.74 166.289,40.68C166.289,41.62 166.329,42.37 166.409,42.93C166.489,43.49 166.624,43.905 166.814,44.175C167.004,44.445 167.249,44.625 167.549,44.715C167.849,44.805 168.219,44.85 168.659,44.85Z" style="fill:rgb(133,133,133);fill-rule:nonzero;"/>
            <path d="M184.109,48.99C182.869,48.99 181.819,48.73 180.959,48.21C180.099,47.69 179.449,46.84 179.009,45.66C178.569,44.48 178.349,42.9 178.349,40.92C178.349,38.92 178.529,37.3 178.889,36.06C179.249,34.82 179.869,33.9 180.749,33.3C181.629,32.7 182.849,32.4 184.409,32.4C185.089,32.4 185.769,32.47 186.449,32.61C187.129,32.75 187.729,32.91 188.249,33.09L188.249,25.92L193.439,25.92L193.439,48.81L189.059,48.81L188.249,47.31C187.889,47.63 187.484,47.92 187.034,48.18C186.584,48.44 186.114,48.64 185.624,48.78C185.134,48.92 184.629,48.99 184.109,48.99ZM185.969,44.85C186.469,44.85 186.914,44.77 187.304,44.61C187.694,44.45 188.009,44.28 188.249,44.1L188.249,36.84C187.969,36.72 187.644,36.595 187.274,36.465C186.904,36.335 186.529,36.27 186.149,36.27C185.509,36.27 184.999,36.38 184.619,36.6C184.239,36.82 183.964,37.245 183.794,37.875C183.624,38.505 183.539,39.43 183.539,40.65C183.539,41.83 183.614,42.72 183.764,43.32C183.914,43.92 184.174,44.325 184.544,44.535C184.914,44.745 185.389,44.85 185.969,44.85Z" style="fill:rgb(133,133,133);fill-rule:nonzero;"/>
            <path d="M203.399,48.96C201.599,48.96 200.149,48.725 199.049,48.255C197.949,47.785 197.154,46.955 196.664,45.765C196.174,44.575 195.929,42.91 195.929,40.77C195.929,38.57 196.154,36.865 196.604,35.655C197.054,34.445 197.809,33.6 198.869,33.12C199.929,32.64 201.369,32.4 203.189,32.4C204.849,32.4 206.169,32.56 207.149,32.88C208.129,33.2 208.834,33.77 209.264,34.59C209.694,35.41 209.909,36.57 209.909,38.07C209.909,39.19 209.689,40.08 209.249,40.74C208.809,41.4 208.184,41.865 207.374,42.135C206.564,42.405 205.609,42.54 204.509,42.54L201.059,42.54C201.119,43.18 201.244,43.69 201.434,44.07C201.624,44.45 201.979,44.72 202.499,44.88C203.019,45.04 203.789,45.12 204.809,45.12L209.339,45.12L209.339,48.15C208.599,48.33 207.754,48.51 206.804,48.69C205.854,48.87 204.719,48.96 203.399,48.96ZM200.999,39.48L203.939,39.48C204.439,39.48 204.799,39.38 205.019,39.18C205.239,38.98 205.349,38.62 205.349,38.1C205.349,37.62 205.279,37.235 205.139,36.945C204.999,36.655 204.769,36.445 204.449,36.315C204.129,36.185 203.709,36.12 203.189,36.12C202.669,36.12 202.249,36.215 201.929,36.405C201.609,36.595 201.374,36.935 201.224,37.425C201.074,37.915 200.999,38.6 200.999,39.48Z" style="fill:rgb(133,133,133);fill-rule:nonzero;"/>
            <path d="M217.799,48.9C216.599,48.9 215.599,48.705 214.799,48.315C213.999,47.925 213.409,47.34 213.029,46.56C212.649,45.78 212.459,44.79 212.459,43.59L212.459,25.92L217.649,25.92L217.649,42.78C217.649,43.28 217.699,43.68 217.799,43.98C217.899,44.28 218.059,44.505 218.279,44.655C218.499,44.805 218.779,44.91 219.119,44.97L220.199,45.12L220.199,48.9L217.799,48.9Z" style="fill:rgb(133,133,133);fill-rule:nonzero;"/>
            <path d="M229.079,48.96C227.279,48.96 225.829,48.725 224.729,48.255C223.629,47.785 222.834,46.955 222.344,45.765C221.854,44.575 221.609,42.91 221.609,40.77C221.609,38.57 221.834,36.865 222.284,35.655C222.734,34.445 223.489,33.6 224.549,33.12C225.609,32.64 227.049,32.4 228.869,32.4C230.529,32.4 231.849,32.56 232.829,32.88C233.809,33.2 234.514,33.77 234.944,34.59C235.374,35.41 235.589,36.57 235.589,38.07C235.589,39.19 235.369,40.08 234.929,40.74C234.489,41.4 233.864,41.865 233.054,42.135C232.244,42.405 231.289,42.54 230.189,42.54L226.739,42.54C226.799,43.18 226.924,43.69 227.114,44.07C227.304,44.45 227.659,44.72 228.179,44.88C228.699,45.04 229.469,45.12 230.489,45.12L235.019,45.12L235.019,48.15C234.279,48.33 233.434,48.51 232.484,48.69C231.534,48.87 230.399,48.96 229.079,48.96ZM226.679,39.48L229.619,39.48C230.119,39.48 230.479,39.38 230.699,39.18C230.919,38.98 231.029,38.62 231.029,38.1C231.029,37.62 230.959,37.235 230.819,36.945C230.679,36.655 230.449,36.445 230.129,36.315C229.809,36.185 229.389,36.12 228.869,36.12C228.349,36.12 227.929,36.215 227.609,36.405C227.289,36.595 227.054,36.935 226.904,37.425C226.754,37.915 226.679,38.6 226.679,39.48Z" style="fill:rgb(133,133,133);fill-rule:nonzero;"/>
            <path d="M238.139,48.81L238.139,32.67L242.159,32.67L243.329,35.01C243.849,34.31 244.449,33.705 245.129,33.195C245.809,32.685 246.619,32.43 247.559,32.43C247.739,32.43 247.944,32.44 248.174,32.46C248.404,32.48 248.619,32.52 248.819,32.58L248.819,37.89C248.499,37.85 248.169,37.82 247.829,37.8C247.489,37.78 247.169,37.77 246.869,37.77C246.349,37.77 245.874,37.825 245.444,37.935C245.014,38.045 244.624,38.205 244.274,38.415C243.924,38.625 243.609,38.9 243.329,39.24L243.329,48.81L238.139,48.81Z" style="fill:rgb(133,133,133);fill-rule:nonzero;"/>
        </g>
    </g>
</svg>
