<?xml version="1.0" encoding="UTF-8" standalone="no"?>
<!DOCTYPE svg PUBLIC "-//W3C//DTD SVG 1.1//EN" "http://www.w3.org/Graphics/SVG/1.1/DTD/svg11.dtd">
<svg width="100%" height="100%" viewBox="0 0 450 150" version="1.1"
    xmlns="http://www.w3.org/2000/svg"
    xmlns:xlink="http://www.w3.org/1999/xlink" xml:space="preserve" style="fill-rule:evenodd;clip-rule:evenodd;stroke-linejoin:round;stroke-miterlimit:2;">
    <g transform="matrix(2.41461,0,0,2.41461,80.1278,5.67512)">
        <path d="M17.453,16.559C17.368,16.276 17.323,15.977 17.323,15.666C17.323,13.947 18.716,12.557 20.432,12.557C22.149,12.557 23.542,13.947 23.542,15.666C23.542,15.668 23.542,15.67 23.542,15.672C23.542,15.977 23.497,16.272 23.413,16.551L30.592,20.696C30.795,20.482 31.031,20.293 31.299,20.137C32.787,19.281 34.684,19.789 35.549,21.278C36.405,22.766 35.897,24.664 34.408,25.529C34.142,25.682 33.862,25.791 33.577,25.858L33.577,34.147C33.859,34.214 34.135,34.322 34.397,34.473C35.895,35.326 36.403,37.247 35.539,38.724L35.538,38.724C34.684,40.201 32.766,40.716 31.287,39.864C30.992,39.694 30.736,39.481 30.521,39.238L23.384,43.359C23.486,43.667 23.542,43.998 23.542,44.341C23.539,46.046 22.137,47.448 20.432,47.45C18.713,47.45 17.323,46.061 17.323,44.341C17.323,44.034 17.367,43.738 17.45,43.458L10.279,39.317C10.079,39.527 9.846,39.712 9.583,39.865C8.085,40.721 6.188,40.213 5.332,38.724C4.477,37.236 4.985,35.338 6.474,34.473C6.736,34.322 7.011,34.214 7.291,34.146L7.291,25.856C7.007,25.789 6.728,25.68 6.463,25.528C4.986,24.674 4.471,22.756 5.323,21.277C6.177,19.8 8.095,19.285 9.574,20.137C9.841,20.29 10.077,20.479 10.279,20.692L17.453,16.559ZM29.828,37.913L11.049,37.913C11.038,37.954 11.028,37.995 11.016,38.035L18.196,42.18C18.762,41.595 19.555,41.232 20.432,41.232C21.341,41.232 22.16,41.622 22.728,42.244L29.884,38.112C29.863,38.047 29.845,37.98 29.828,37.913ZM72.575,38.563L72.252,38.563C71.973,38.563 71.834,38.423 71.834,38.145L71.834,25.478C71.834,25.199 71.973,25.06 72.252,25.06L72.575,25.06C72.854,25.06 72.993,25.199 72.993,25.478L72.993,26.371C73.31,25.94 73.721,25.586 74.229,25.307C74.735,25.023 75.387,24.88 76.185,24.88C76.919,24.88 77.54,25.013 78.046,25.279C78.565,25.533 78.983,25.875 79.301,26.306C79.617,26.724 79.845,27.205 79.983,27.75C80.135,28.282 80.224,28.826 80.25,29.384C80.263,29.574 80.269,29.783 80.269,30.011C80.269,30.239 80.263,30.448 80.25,30.638C80.224,31.197 80.135,31.748 79.983,32.292C79.844,32.824 79.616,33.305 79.301,33.736C78.984,34.154 78.566,34.496 78.046,34.762C77.54,35.015 76.919,35.142 76.185,35.142L76.185,35.133C75.387,35.133 74.735,34.991 74.229,34.707C73.722,34.422 73.31,34.068 72.993,33.643L72.993,38.145C72.993,38.423 72.854,38.563 72.575,38.563ZM21.303,18.652C21.028,18.732 20.737,18.776 20.438,18.776C20.436,18.776 20.434,18.776 20.432,18.776C20.131,18.776 19.839,18.733 19.563,18.653L10.174,34.916C10.384,35.116 10.571,35.35 10.724,35.614C10.876,35.877 10.984,36.153 11.052,36.434L29.82,36.434C29.887,36.152 29.996,35.876 30.147,35.613C30.299,35.35 30.485,35.118 30.696,34.918L21.303,18.652ZM103.353,36.176L102.935,36.176C102.796,36.176 102.676,36.119 102.575,36.005C102.474,35.904 102.391,35.815 102.327,35.738L101.489,34.579C100.728,34.946 99.841,35.13 98.828,35.13C97.245,35.13 96.023,34.706 95.162,33.858C94.314,33.009 93.864,31.686 93.813,29.887C93.787,29.319 93.774,28.787 93.774,28.292C93.774,27.798 93.787,27.266 93.813,26.696C93.838,25.809 93.971,25.043 94.212,24.397C94.465,23.739 94.807,23.194 95.238,22.763C95.681,22.32 96.2,21.991 96.795,21.775C97.403,21.56 98.081,21.452 98.828,21.452L98.832,21.452C99.566,21.452 100.238,21.56 100.846,21.775C101.454,21.991 101.973,22.32 102.403,22.763C102.846,23.193 103.188,23.738 103.429,24.397C103.682,25.043 103.822,25.809 103.847,26.696C103.873,27.265 103.886,27.797 103.886,28.292C103.886,28.785 103.873,29.317 103.847,29.887C103.783,31.699 103.321,33.028 102.46,33.877L103.677,35.587C103.689,35.612 103.702,35.637 103.715,35.661C103.728,35.687 103.734,35.731 103.734,35.795C103.734,35.896 103.696,35.985 103.62,36.061C103.544,36.138 103.455,36.176 103.353,36.176ZM62.25,27.669L61.983,27.669C61.869,27.669 61.768,27.631 61.679,27.555C61.603,27.466 61.565,27.364 61.565,27.251C61.565,27.073 61.628,26.851 61.755,26.586C61.881,26.32 62.084,26.061 62.363,25.807C62.647,25.554 63.014,25.339 63.465,25.162C63.908,24.972 64.447,24.877 65.082,24.877C65.828,24.877 66.443,24.979 66.925,25.181C67.418,25.384 67.805,25.65 68.084,25.979C68.363,26.296 68.553,26.65 68.654,27.043C68.768,27.435 68.825,27.822 68.825,28.202L68.825,34.528C68.825,34.806 68.685,34.946 68.407,34.946L68.083,34.946L68.089,34.944C67.81,34.944 67.671,34.804 67.671,34.525L67.671,33.633C67.557,33.81 67.405,33.988 67.215,34.166C67.037,34.344 66.816,34.502 66.551,34.641C66.285,34.78 65.965,34.894 65.59,34.982C65.223,35.083 64.793,35.133 64.3,35.133C63.845,35.133 63.407,35.064 62.988,34.924C62.582,34.773 62.222,34.57 61.905,34.316C61.601,34.063 61.355,33.766 61.165,33.424C60.987,33.082 60.898,32.709 60.898,32.304C60.898,31.873 60.987,31.487 61.165,31.144C61.355,30.803 61.614,30.505 61.944,30.251C62.273,29.985 62.665,29.77 63.121,29.606C63.59,29.428 64.104,29.301 64.66,29.226L67.662,28.808L67.662,28.143C67.662,27.459 67.453,26.927 67.035,26.548C66.629,26.168 65.977,25.978 65.078,25.978C64.369,25.978 63.818,26.117 63.425,26.396C63.045,26.662 62.806,26.954 62.706,27.271C62.656,27.422 62.593,27.53 62.516,27.594C62.452,27.644 62.363,27.669 62.25,27.669ZM51.912,25.355L51.494,25.355C51.38,25.355 51.298,25.33 51.247,25.28C51.197,25.216 51.147,25.115 51.095,24.976C50.994,24.692 50.852,24.408 50.669,24.123C50.491,23.839 50.251,23.585 49.95,23.364C49.646,23.136 49.285,22.952 48.867,22.812C48.449,22.673 47.955,22.603 47.384,22.603L47.386,22.592C46.818,22.592 46.298,22.668 45.829,22.82C45.374,22.959 44.975,23.194 44.632,23.524C44.303,23.84 44.037,24.252 43.834,24.759C43.645,25.265 43.537,25.87 43.511,26.572C43.471,27.712 43.471,28.852 43.511,29.992C43.537,30.701 43.645,31.305 43.834,31.805C44.037,32.312 44.303,32.73 44.632,33.06C44.974,33.376 45.373,33.611 45.829,33.764C46.298,33.903 46.818,33.973 47.386,33.973C47.945,33.973 48.465,33.897 48.944,33.746C49.423,33.581 49.835,33.341 50.179,33.027C50.535,32.697 50.814,32.279 51.017,31.772C51.22,31.266 51.321,30.671 51.321,29.987L51.321,29.018L48.012,29.018C47.733,29.018 47.593,28.876 47.593,28.591L47.593,28.325C47.593,28.04 47.733,27.898 48.012,27.898L52.076,27.898C52.36,27.898 52.502,28.04 52.502,28.325L52.502,29.996C52.502,30.757 52.388,31.454 52.161,32.087C51.933,32.708 51.598,33.247 51.154,33.704C50.724,34.159 50.185,34.514 49.537,34.768C48.897,35.008 48.175,35.128 47.372,35.128C46.548,35.128 45.826,35.008 45.206,34.768C44.585,34.514 44.06,34.166 43.63,33.722C43.211,33.279 42.889,32.754 42.661,32.146C42.446,31.525 42.325,30.841 42.3,30.093C42.275,29.524 42.262,28.923 42.262,28.289C42.262,27.648 42.275,27.047 42.3,26.484C42.326,25.737 42.453,25.059 42.68,24.451C42.908,23.83 43.231,23.298 43.649,22.855C44.079,22.412 44.605,22.07 45.225,21.829C45.846,21.575 46.562,21.449 47.372,21.449C48.246,21.449 48.994,21.582 49.614,21.848C50.234,22.114 50.741,22.434 51.134,22.808C51.526,23.176 51.818,23.562 52.008,23.967C52.198,24.373 52.3,24.708 52.312,24.974C52.325,25.088 52.293,25.183 52.216,25.259C52.14,25.323 52.039,25.355 51.912,25.355ZM83.6,34.941L83.277,34.941C82.998,34.941 82.859,34.802 82.859,34.523L82.859,21.867C82.859,21.588 82.998,21.449 83.277,21.449L83.6,21.449C83.879,21.449 84.019,21.588 84.019,21.867L84.019,26.368L84.015,26.372L84.019,26.368L84.019,26.368C84.359,25.926 84.77,25.567 85.251,25.289C85.73,25.01 86.382,24.871 87.207,24.871C87.853,24.871 88.416,24.979 88.898,25.194C89.377,25.41 89.776,25.707 90.094,26.087C90.424,26.467 90.67,26.916 90.835,27.436C91,27.955 91.082,28.519 91.082,29.127L91.082,34.522C91.082,34.801 90.943,34.94 90.664,34.94L90.344,34.94C90.065,34.94 89.926,34.801 89.926,34.522L89.926,29.221C89.926,28.207 89.679,27.416 89.186,26.846C88.692,26.263 87.97,25.972 87.02,25.972C86.109,25.972 85.38,26.256 84.836,26.825C84.291,27.394 84.019,28.193 84.019,29.222L84.019,34.523C84.019,34.802 83.879,34.941 83.6,34.941ZM55.919,34.938L55.615,34.938C55.336,34.938 55.197,34.799 55.197,34.52L55.197,25.496C55.197,25.369 55.235,25.268 55.311,25.192C55.387,25.103 55.488,25.059 55.615,25.059L55.919,25.059C56.045,25.059 56.147,25.103 56.223,25.192C56.312,25.268 56.356,25.369 56.356,25.496L56.356,26.37L56.355,26.372L56.356,26.371L56.356,26.37C56.812,25.496 57.672,25.06 58.939,25.06L59.643,25.06C59.921,25.06 60.061,25.199 60.061,25.478L60.061,25.744C60.061,26.023 59.921,26.163 59.643,26.163L58.826,26.163C58.065,26.163 57.463,26.384 57.021,26.827C56.578,27.27 56.356,27.872 56.356,28.632L56.356,34.52C56.356,34.647 56.312,34.748 56.223,34.824C56.147,34.9 56.045,34.938 55.919,34.938ZM114.658,34.93L107.326,34.93C107.047,34.93 106.908,34.79 106.908,34.512L106.908,22.059C106.908,21.78 107.047,21.641 107.326,21.641L107.686,21.641C107.965,21.641 108.104,21.78 108.104,22.059L108.104,33.8L114.658,33.8C114.942,33.8 115.085,33.942 115.085,34.227L115.085,34.512C115.085,34.79 114.942,34.93 114.658,34.93ZM22.664,17.826C22.637,17.854 22.609,17.881 22.581,17.909L31.979,34.186C32.018,34.175 32.058,34.164 32.097,34.155L32.097,25.845C31.307,25.646 30.593,25.143 30.157,24.389L30.157,24.388C29.721,23.628 29.639,22.762 29.862,21.981L22.664,17.826ZM18.201,17.834L11.009,21.979C11.232,22.763 11.151,23.633 10.715,24.388L10.714,24.388C10.277,25.144 9.561,25.648 8.768,25.845L8.768,34.148C8.809,34.158 8.85,34.169 8.89,34.181L18.282,17.914C18.255,17.888 18.228,17.861 18.201,17.834ZM64.498,34.032C64.928,34.032 65.334,33.962 65.714,33.822C66.107,33.671 66.449,33.449 66.74,33.158C67.025,32.873 67.252,32.506 67.423,32.056C67.588,31.613 67.671,31.094 67.671,30.499L67.671,29.853L65.22,30.195C63.118,30.479 62.067,31.15 62.067,32.209C62.067,32.525 62.137,32.797 62.276,33.026C62.428,33.253 62.618,33.443 62.846,33.595C63.073,33.747 63.333,33.861 63.625,33.937C63.909,34.001 64.201,34.033 64.499,34.033L64.498,34.032ZM72.993,29.32C72.98,29.51 72.974,29.757 72.974,30.06C72.974,30.364 72.98,30.611 72.993,30.801C73.006,31.18 73.069,31.567 73.183,31.96C73.31,32.34 73.5,32.682 73.753,32.986C74.006,33.29 74.326,33.543 74.713,33.746C75.093,33.936 75.548,34.03 76.08,34.03C76.639,34.03 77.101,33.936 77.467,33.746C77.847,33.556 78.151,33.303 78.379,32.986C78.619,32.657 78.79,32.284 78.891,31.866C79.005,31.436 79.074,30.993 79.1,30.536C79.113,30.18 79.113,29.826 79.1,29.473C79.074,29.017 79.005,28.58 78.891,28.161C78.79,27.742 78.619,27.375 78.379,27.059C78.151,26.729 77.847,26.47 77.467,26.28C77.099,26.077 76.637,25.976 76.08,25.976C75.536,25.976 75.073,26.077 74.694,26.28C74.314,26.483 73.994,26.749 73.734,27.078C73.493,27.394 73.309,27.749 73.182,28.141C73.068,28.534 73.005,28.926 72.992,29.319L72.993,29.32ZM98.827,22.593L98.832,22.593L98.823,22.593L98.827,22.593C98.297,22.594 97.804,22.676 97.349,22.841C96.894,22.992 96.495,23.239 96.152,23.581C95.811,23.923 95.538,24.36 95.335,24.893C95.145,25.425 95.037,26.058 95.012,26.792C94.999,27.076 94.986,27.342 94.973,27.59L94.973,29.013C94.986,29.253 94.999,29.513 95.012,29.791C95.037,30.538 95.145,31.178 95.335,31.711C95.538,32.231 95.804,32.661 96.133,33.002C96.474,33.344 96.873,33.597 97.33,33.762C97.785,33.913 98.284,33.989 98.827,33.989C99.372,33.989 99.871,33.913 100.325,33.762C100.78,33.597 101.173,33.344 101.503,33.002C101.844,32.661 102.11,32.231 102.3,31.711C102.503,31.18 102.617,30.54 102.642,29.791C102.655,29.513 102.661,29.253 102.661,29.013L102.661,27.59C102.661,27.349 102.655,27.084 102.642,26.792C102.616,26.057 102.502,25.424 102.3,24.893C102.111,24.361 101.845,23.924 101.503,23.581C101.161,23.24 100.762,22.993 100.306,22.841C99.852,22.676 99.359,22.594 98.827,22.593Z" style="fill:rgb(225,0,152);fill-rule:nonzero;"/>
    </g>
</svg>
