<?xml version="1.0" encoding="UTF-8" standalone="no"?>
<!DOCTYPE svg PUBLIC "-//W3C//DTD SVG 1.1//EN" "http://www.w3.org/Graphics/SVG/1.1/DTD/svg11.dtd">
<svg width="100%" height="100%" viewBox="0 0 300 300" version="1.1" xmlns="http://www.w3.org/2000/svg" xmlns:xlink="http://www.w3.org/1999/xlink" xml:space="preserve" style="fill-rule:evenodd;clip-rule:evenodd;stroke-linejoin:round;stroke-miterlimit:2;">
    <g>
        <path d="M26,163.476L27.968,163.476L31.76,178.524L36.128,163.476L38.048,163.476L42.392,178.524L46.184,163.476L48.152,163.476L43.616,181.14L41.552,181.14L37.088,166.14L32.6,181.14L30.536,181.14L26,163.476Z" style="fill:rgb(133,133,133);fill-rule:nonzero;"/>
        <path d="M49.784,163.476L51.752,163.476L55.544,178.524L59.912,163.476L61.832,163.476L66.176,178.524L69.968,163.476L71.936,163.476L67.4,181.14L65.336,181.14L60.872,166.14L56.384,181.14L54.32,181.14L49.784,163.476Z" style="fill:rgb(133,133,133);fill-rule:nonzero;"/>
        <path d="M73.568,163.476L75.536,163.476L79.328,178.524L83.696,163.476L85.616,163.476L89.96,178.524L93.752,163.476L95.72,163.476L91.184,181.14L89.12,181.14L84.656,166.14L80.168,181.14L78.104,181.14L73.568,163.476Z" style="fill:rgb(133,133,133);fill-rule:nonzero;"/>
        <path d="M97.448,181.164C97.336,181.164 97.244,181.128 97.172,181.056C97.1,180.984 97.064,180.892 97.064,180.78L97.064,178.86C97.064,178.604 97.192,178.476 97.448,178.476L98.504,178.476C98.76,178.476 98.888,178.604 98.888,178.86L98.888,180.78C98.888,181.036 98.76,181.164 98.504,181.164L97.448,181.164Z" style="fill:rgb(133,133,133);fill-rule:nonzero;"/>
        <path d="M102.224,163.476L109.208,163.476C111.272,163.476 112.756,164.212 113.66,165.684C114.564,167.156 115.016,169.364 115.016,172.308C115.016,175.124 114.524,177.3 113.54,178.836C112.556,180.372 111.112,181.14 109.208,181.14L102.224,181.14L102.224,163.476ZM109.064,179.436C110.424,179.436 111.44,178.808 112.112,177.552C112.784,176.296 113.12,174.548 113.12,172.308C113.12,170.564 112.98,169.172 112.7,168.132C112.42,167.092 111.984,166.344 111.392,165.888C110.8,165.432 110.024,165.204 109.064,165.204L104.144,165.204L104.144,179.436L109.064,179.436Z" style="fill:rgb(133,133,133);fill-rule:nonzero;"/>
        <path d="M123.056,163.476L125.504,163.476L131.552,181.14L129.584,181.14L127.808,176.1L120.704,176.1L118.976,181.14L117.008,181.14L123.056,163.476ZM127.328,174.372L124.28,165.156L121.184,174.372L127.328,174.372Z" style="fill:rgb(133,133,133);fill-rule:nonzero;"/>
        <path d="M137.024,165.204L131.552,165.204L131.552,163.476L144.368,163.476L144.368,165.204L138.92,165.204L138.92,181.14L137.024,181.14L137.024,165.204Z" style="fill:rgb(133,133,133);fill-rule:nonzero;"/>
        <path d="M149.96,181.236C148.952,181.236 148.1,181 147.404,180.528C146.708,180.056 146.36,179.148 146.36,177.804L146.36,167.028C146.36,165.78 146.696,164.876 147.368,164.316C148.04,163.756 148.864,163.476 149.84,163.476C152.4,163.524 154.392,163.58 155.816,163.644L157.232,163.692L157.232,165.228L150.32,165.228C148.96,165.228 148.28,165.932 148.28,167.34L148.28,171.516L156.176,171.636L156.176,173.1L148.28,173.22L148.28,177.372C148.28,178.188 148.472,178.74 148.856,179.028C149.24,179.316 149.76,179.46 150.416,179.46L157.232,179.46L157.232,180.996C154.192,181.156 151.768,181.236 149.96,181.236Z" style="fill:rgb(133,133,133);fill-rule:nonzero;"/>
        <path d="M160.784,163.476L162.344,163.476L171.56,177.852L171.56,163.476L173.456,163.476L173.456,181.14L171.896,181.14L162.68,166.764L162.68,181.14L160.784,181.14L160.784,163.476Z" style="fill:rgb(133,133,133);fill-rule:nonzero;"/>
        <path d="M181.856,181.284C181.104,181.284 180.172,181.24 179.06,181.152C177.948,181.064 177.096,180.964 176.504,180.852L176.504,179.388C177.752,179.516 179.512,179.58 181.784,179.58C183,179.58 183.944,179.388 184.616,179.004C185.288,178.62 185.624,177.924 185.624,176.916L185.624,175.716C185.624,174.052 184.744,173.22 182.984,173.22L181.088,173.22C179.568,173.22 178.412,172.888 177.62,172.224C176.828,171.56 176.432,170.468 176.432,168.948L176.432,167.94C176.432,166.324 176.864,165.152 177.728,164.424C178.592,163.696 179.872,163.332 181.568,163.332C182.288,163.332 183.156,163.384 184.172,163.488C185.188,163.592 186.016,163.708 186.656,163.836L186.656,165.276C184.496,165.132 182.864,165.06 181.76,165.06C180.576,165.06 179.696,165.272 179.12,165.696C178.544,166.12 178.256,166.892 178.256,168.012L178.256,168.828C178.256,169.756 178.5,170.416 178.988,170.808C179.476,171.2 180.2,171.396 181.16,171.396L183.2,171.396C184.592,171.396 185.648,171.768 186.368,172.512C187.088,173.256 187.448,174.252 187.448,175.5L187.448,176.868C187.448,178.516 186.948,179.664 185.948,180.312C184.948,180.96 183.584,181.284 181.856,181.284Z" style="fill:rgb(133,133,133);fill-rule:nonzero;"/>
        <path d="M194.312,181.236C193.304,181.236 192.452,181 191.756,180.528C191.06,180.056 190.712,179.148 190.712,177.804L190.712,167.028C190.712,165.78 191.048,164.876 191.72,164.316C192.392,163.756 193.216,163.476 194.192,163.476C196.752,163.524 198.744,163.58 200.168,163.644L201.584,163.692L201.584,165.228L194.672,165.228C193.312,165.228 192.632,165.932 192.632,167.34L192.632,171.516L200.528,171.636L200.528,173.1L192.632,173.22L192.632,177.372C192.632,178.188 192.824,178.74 193.208,179.028C193.592,179.316 194.112,179.46 194.768,179.46L201.584,179.46L201.584,180.996C198.544,181.156 196.12,181.236 194.312,181.236Z" style="fill:rgb(133,133,133);fill-rule:nonzero;"/>
        <path d="M205.136,163.476L206.696,163.476L215.912,177.852L215.912,163.476L217.808,163.476L217.808,181.14L216.248,181.14L207.032,166.764L207.032,181.14L205.136,181.14L205.136,163.476Z" style="fill:rgb(133,133,133);fill-rule:nonzero;"/>
        <path d="M221.216,181.164C221.104,181.164 221.012,181.128 220.94,181.056C220.868,180.984 220.832,180.892 220.832,180.78L220.832,178.86C220.832,178.604 220.96,178.476 221.216,178.476L222.272,178.476C222.528,178.476 222.656,178.604 222.656,178.86L222.656,180.78C222.656,181.036 222.528,181.164 222.272,181.164L221.216,181.164Z" style="fill:rgb(133,133,133);fill-rule:nonzero;"/>
        <path d="M231.296,181.284C229.776,181.284 228.576,181.048 227.696,180.576C226.816,180.104 226.16,179.22 225.728,177.924C225.296,176.628 225.08,174.74 225.08,172.26C225.08,169.908 225.304,168.088 225.752,166.8C226.2,165.512 226.88,164.612 227.792,164.1C228.704,163.588 229.92,163.332 231.44,163.332C232.176,163.332 233.02,163.392 233.972,163.512C234.924,163.632 235.768,163.788 236.504,163.98L236.504,165.396C235.944,165.316 235.224,165.236 234.344,165.156C233.464,165.076 232.592,165.036 231.728,165.036C230.528,165.036 229.592,165.232 228.92,165.624C228.248,166.016 227.756,166.728 227.444,167.76C227.132,168.792 226.976,170.3 226.976,172.284C226.976,174.332 227.124,175.872 227.42,176.904C227.716,177.936 228.192,178.64 228.848,179.016C229.504,179.392 230.448,179.58 231.68,179.58C233.712,179.58 235.32,179.476 236.504,179.268L236.504,180.708C235.768,180.884 234.94,181.024 234.02,181.128C233.1,181.232 232.192,181.284 231.296,181.284Z" style="fill:rgb(133,133,133);fill-rule:nonzero;"/>
        <path d="M245.6,181.284C243.936,181.284 242.628,181.064 241.676,180.624C240.724,180.184 240.004,179.328 239.516,178.056C239.028,176.784 238.784,174.892 238.784,172.38C238.784,169.884 239.036,167.984 239.54,166.68C240.044,165.376 240.776,164.492 241.736,164.028C242.696,163.564 243.984,163.332 245.6,163.332C247.264,163.332 248.576,163.56 249.536,164.016C250.496,164.472 251.216,165.352 251.696,166.656C252.176,167.96 252.416,169.868 252.416,172.38C252.416,174.892 252.172,176.784 251.684,178.056C251.196,179.328 250.476,180.184 249.524,180.624C248.572,181.064 247.264,181.284 245.6,181.284ZM245.6,179.58C246.88,179.58 247.86,179.404 248.54,179.052C249.22,178.7 249.72,178.012 250.04,176.988C250.36,175.964 250.52,174.428 250.52,172.38C250.52,170.252 250.36,168.668 250.04,167.628C249.72,166.588 249.22,165.896 248.54,165.552C247.86,165.208 246.88,165.036 245.6,165.036C244.384,165.036 243.432,165.208 242.744,165.552C242.056,165.896 241.54,166.596 241.196,167.652C240.852,168.708 240.68,170.284 240.68,172.38C240.68,174.444 240.832,175.984 241.136,177C241.44,178.016 241.932,178.7 242.612,179.052C243.292,179.404 244.288,179.58 245.6,179.58Z" style="fill:rgb(133,133,133);fill-rule:nonzero;"/>
        <path d="M270.176,181.14L268.496,166.476L264.248,181.14L262.496,181.14L258.176,166.596L256.568,181.14L254.72,181.14L256.736,163.476L258.68,163.476L263.384,178.74L267.992,163.476L269.96,163.476L272.024,181.14L270.176,181.14Z" style="fill:rgb(133,133,133);fill-rule:nonzero;"/>
        <path d="M32.216,122.034C30.696,122.034 29.496,121.798 28.616,121.326C27.736,120.854 27.08,119.97 26.648,118.674C26.216,117.378 26,115.49 26,113.01C26,110.658 26.224,108.838 26.672,107.55C27.12,106.262 27.8,105.362 28.712,104.85C29.624,104.338 30.84,104.082 32.36,104.082C33.096,104.082 33.94,104.142 34.892,104.262C35.844,104.382 36.688,104.538 37.424,104.73L37.424,106.146C36.864,106.066 36.144,105.986 35.264,105.906C34.384,105.826 33.512,105.786 32.648,105.786C31.448,105.786 30.512,105.982 29.84,106.374C29.168,106.766 28.676,107.478 28.364,108.51C28.052,109.542 27.896,111.05 27.896,113.034C27.896,115.082 28.044,116.622 28.34,117.654C28.636,118.686 29.112,119.39 29.768,119.766C30.424,120.142 31.368,120.33 32.6,120.33C34.632,120.33 36.24,120.226 37.424,120.018L37.424,121.458C36.688,121.634 35.86,121.774 34.94,121.878C34.02,121.982 33.112,122.034 32.216,122.034Z" style="fill:rgb(133,133,133);fill-rule:nonzero;"/>
        <path d="M40.352,109.074L41.792,109.074L42.248,111.306C42.872,110.554 43.544,109.97 44.264,109.554C44.984,109.138 45.776,108.93 46.64,108.93C47.072,108.93 47.472,108.97 47.84,109.05L47.84,110.994C47.12,110.914 46.656,110.874 46.448,110.874C45.6,110.874 44.868,111.026 44.252,111.33C43.636,111.634 42.968,112.122 42.248,112.794L42.248,121.89L40.352,121.89L40.352,109.074Z" style="fill:rgb(133,133,133);fill-rule:nonzero;"/>
        <path d="M55.136,122.034C53.76,122.034 52.692,121.834 51.932,121.434C51.172,121.034 50.624,120.362 50.288,119.418C49.952,118.474 49.784,117.154 49.784,115.458C49.784,113.746 49.956,112.418 50.3,111.474C50.644,110.53 51.2,109.866 51.968,109.482C52.736,109.098 53.8,108.906 55.16,108.906C56.328,108.906 57.264,109.034 57.968,109.29C58.672,109.546 59.192,109.982 59.528,110.598C59.864,111.214 60.032,112.066 60.032,113.154C60.032,114.242 59.716,115.03 59.084,115.518C58.452,116.006 57.552,116.25 56.384,116.25L51.68,116.25C51.696,117.354 51.808,118.206 52.016,118.806C52.224,119.406 52.608,119.846 53.168,120.126C53.728,120.406 54.536,120.546 55.592,120.546L59.72,120.546L59.72,121.698C58.856,121.81 58.088,121.894 57.416,121.95C56.744,122.006 55.984,122.034 55.136,122.034ZM56.216,115.002C56.952,115.002 57.488,114.866 57.824,114.594C58.16,114.322 58.328,113.85 58.328,113.178C58.328,112.106 58.092,111.366 57.62,110.958C57.148,110.55 56.328,110.346 55.16,110.346C54.232,110.346 53.52,110.482 53.024,110.754C52.528,111.026 52.176,111.49 51.968,112.146C51.76,112.802 51.656,113.754 51.656,115.002L56.216,115.002Z" style="fill:rgb(133,133,133);fill-rule:nonzero;"/>
        <path d="M65.72,122.034C64.76,122.034 63.98,121.746 63.38,121.17C62.78,120.594 62.48,119.81 62.48,118.818L62.48,117.906C62.48,116.866 62.82,116.042 63.5,115.434C64.18,114.826 65.176,114.522 66.488,114.522L70.832,114.522L70.832,112.938C70.832,112.074 70.596,111.434 70.124,111.018C69.652,110.602 68.784,110.394 67.52,110.394L63.536,110.394L63.536,109.266C65.04,109.01 66.6,108.882 68.216,108.882C69.768,108.882 70.908,109.198 71.636,109.83C72.364,110.462 72.728,111.466 72.728,112.842L72.728,121.89L71.264,121.89L70.904,120.426C70.792,120.522 70.444,120.706 69.86,120.978C69.276,121.25 68.608,121.494 67.856,121.71C67.104,121.926 66.392,122.034 65.72,122.034ZM66.56,120.618C66.992,120.618 67.52,120.538 68.144,120.378C68.768,120.218 69.332,120.05 69.836,119.874C70.34,119.698 70.672,119.578 70.832,119.514L70.832,115.482L66.92,115.65C66.04,115.682 65.396,115.898 64.988,116.298C64.58,116.698 64.376,117.242 64.376,117.93L64.376,118.506C64.376,119.242 64.588,119.778 65.012,120.114C65.436,120.45 65.952,120.618 66.56,120.618Z" style="fill:rgb(133,133,133);fill-rule:nonzero;"/>
        <path d="M80.552,121.89C79.288,121.89 78.36,121.566 77.768,120.918C77.176,120.27 76.896,119.21 76.928,117.738L77,110.634L74.96,110.634L74.96,109.41L77.024,109.074L77.336,105.498L78.8,105.498L78.8,109.074L82.496,109.074L82.496,110.634L78.8,110.634L78.8,117.738C78.8,118.714 78.984,119.382 79.352,119.742C79.72,120.102 80.184,120.306 80.744,120.354L82.304,120.498L82.304,121.89L80.552,121.89Z" style="fill:rgb(133,133,133);fill-rule:nonzero;"/>
        <path d="M90.008,122.034C88.632,122.034 87.564,121.834 86.804,121.434C86.044,121.034 85.496,120.362 85.16,119.418C84.824,118.474 84.656,117.154 84.656,115.458C84.656,113.746 84.828,112.418 85.172,111.474C85.516,110.53 86.072,109.866 86.84,109.482C87.608,109.098 88.672,108.906 90.032,108.906C91.2,108.906 92.136,109.034 92.84,109.29C93.544,109.546 94.064,109.982 94.4,110.598C94.736,111.214 94.904,112.066 94.904,113.154C94.904,114.242 94.588,115.03 93.956,115.518C93.324,116.006 92.424,116.25 91.256,116.25L86.552,116.25C86.568,117.354 86.68,118.206 86.888,118.806C87.096,119.406 87.48,119.846 88.04,120.126C88.6,120.406 89.408,120.546 90.464,120.546L94.592,120.546L94.592,121.698C93.728,121.81 92.96,121.894 92.288,121.95C91.616,122.006 90.856,122.034 90.008,122.034ZM91.088,115.002C91.824,115.002 92.36,114.866 92.696,114.594C93.032,114.322 93.2,113.85 93.2,113.178C93.2,112.106 92.964,111.366 92.492,110.958C92.02,110.55 91.2,110.346 90.032,110.346C89.104,110.346 88.392,110.482 87.896,110.754C87.4,111.026 87.048,111.49 86.84,112.146C86.632,112.802 86.528,113.754 86.528,115.002L91.088,115.002Z" style="fill:rgb(133,133,133);fill-rule:nonzero;"/>
        <path d="M102.248,122.034C100.664,122.034 99.5,121.514 98.756,120.474C98.012,119.434 97.64,117.802 97.64,115.578C97.64,113.978 97.8,112.69 98.12,111.714C98.44,110.738 98.952,110.026 99.656,109.578C100.36,109.13 101.304,108.906 102.488,108.906C103.704,108.906 105.016,109.162 106.424,109.674L106.424,103.578L108.32,103.578L108.32,121.89L106.784,121.89L106.424,120.594C106.04,120.93 105.424,121.254 104.576,121.566C103.728,121.878 102.952,122.034 102.248,122.034ZM102.8,120.474C103.472,120.474 104.092,120.374 104.66,120.174C105.228,119.974 105.816,119.714 106.424,119.394L106.424,111.018C105.672,110.794 105.06,110.634 104.588,110.538C104.116,110.442 103.584,110.394 102.992,110.394C102.144,110.394 101.472,110.55 100.976,110.862C100.48,111.174 100.116,111.698 99.884,112.434C99.652,113.17 99.536,114.194 99.536,115.506C99.536,117.298 99.784,118.574 100.28,119.334C100.776,120.094 101.616,120.474 102.8,120.474Z" style="fill:rgb(133,133,133);fill-rule:nonzero;"/>
        <path d="M118.664,106.794C118.552,106.794 118.46,106.758 118.388,106.686C118.316,106.614 118.28,106.522 118.28,106.41L118.28,104.538C118.28,104.282 118.408,104.154 118.664,104.154L120.008,104.154C120.248,104.154 120.368,104.282 120.368,104.538L120.368,106.41C120.368,106.666 120.248,106.794 120.008,106.794L118.664,106.794ZM118.376,109.074L120.272,109.074L120.272,121.89L118.376,121.89L118.376,109.074Z" style="fill:rgb(133,133,133);fill-rule:nonzero;"/>
        <path d="M123.92,109.074L125.408,109.074L125.816,110.49C126.488,110.026 127.232,109.638 128.048,109.326C128.864,109.014 129.68,108.858 130.496,108.858C131.824,108.858 132.816,109.266 133.472,110.082C134.128,110.898 134.456,111.93 134.456,113.178L134.456,121.89L132.56,121.89L132.56,113.394C132.56,112.562 132.324,111.886 131.852,111.366C131.38,110.846 130.728,110.586 129.896,110.586C129.128,110.586 128.444,110.686 127.844,110.886C127.244,111.086 126.568,111.402 125.816,111.834L125.816,121.89L123.92,121.89L123.92,109.074Z" style="fill:rgb(133,133,133);fill-rule:nonzero;"/>
        <g transform="matrix(1,0,0,1,-134.72,99.3721)">
            <path d="M166.727,53.156C165.347,53.156 164.217,52.876 163.337,52.316C162.457,51.756 161.772,50.971 161.282,49.961C160.792,48.951 160.447,47.761 160.247,46.391C160.047,45.021 159.947,43.526 159.947,41.906C159.947,40.166 160.062,38.596 160.292,37.196C160.522,35.796 160.937,34.601 161.537,33.611C162.137,32.621 162.992,31.861 164.102,31.331C165.212,30.801 166.647,30.536 168.407,30.536C169.507,30.536 170.482,30.581 171.332,30.671C172.182,30.761 172.982,30.886 173.732,31.046C174.482,31.206 175.247,31.386 176.027,31.586L176.027,35.606C175.587,35.546 175.027,35.486 174.347,35.426C173.667,35.366 172.902,35.311 172.052,35.261C171.202,35.211 170.307,35.186 169.367,35.186C168.167,35.186 167.262,35.386 166.652,35.786C166.042,36.186 165.637,36.876 165.437,37.856C165.237,38.836 165.137,40.186 165.137,41.906C165.137,43.246 165.192,44.336 165.302,45.176C165.412,46.016 165.597,46.671 165.857,47.141C166.117,47.611 166.462,47.936 166.892,48.116C167.322,48.296 167.837,48.386 168.437,48.386C169.217,48.386 169.932,48.336 170.582,48.236C171.232,48.136 171.747,48.036 172.127,47.936L172.127,44.396L168.617,44.396L168.617,40.286C169.057,40.226 169.572,40.176 170.162,40.136C170.752,40.096 171.372,40.061 172.022,40.031C172.672,40.001 173.267,39.986 173.807,39.986C174.507,39.986 175.122,39.991 175.652,40.001C176.182,40.011 176.667,40.036 177.107,40.076L177.107,53.006L173.207,53.006L172.517,51.506C171.977,51.846 171.192,52.206 170.162,52.586C169.132,52.966 167.987,53.156 166.727,53.156Z" style="fill:rgb(133,133,133);fill-rule:nonzero;"/>
            <path d="M183.917,53.186C182.677,53.186 181.677,52.821 180.917,52.091C180.157,51.361 179.777,50.366 179.777,49.106L179.777,47.546C179.777,46.326 180.212,45.316 181.082,44.516C181.952,43.716 183.317,43.316 185.177,43.316L188.837,43.316L188.837,42.536C188.837,42.096 188.757,41.736 188.597,41.456C188.437,41.176 188.127,40.976 187.667,40.856C187.207,40.736 186.497,40.676 185.537,40.676L180.797,40.676L180.797,37.706C181.597,37.406 182.532,37.161 183.602,36.971C184.672,36.781 185.967,36.676 187.487,36.656C188.827,36.656 189.987,36.816 190.967,37.136C191.947,37.456 192.702,38.011 193.232,38.801C193.762,39.591 194.027,40.716 194.027,42.176L194.027,53.006L189.917,53.006L189.107,51.356C188.927,51.516 188.682,51.701 188.372,51.911C188.062,52.121 187.682,52.326 187.232,52.526C186.782,52.726 186.277,52.886 185.717,53.006C185.157,53.126 184.557,53.186 183.917,53.186ZM186.587,49.616C186.727,49.636 186.892,49.626 187.082,49.586C187.272,49.546 187.457,49.501 187.637,49.451C187.817,49.401 187.992,49.351 188.162,49.301C188.332,49.251 188.472,49.201 188.582,49.151C188.692,49.101 188.777,49.066 188.837,49.046L188.837,45.746L186.917,45.926C186.257,46.006 185.762,46.181 185.432,46.451C185.102,46.721 184.937,47.106 184.937,47.606L184.937,48.236C184.937,48.576 185.007,48.851 185.147,49.061C185.287,49.271 185.482,49.416 185.732,49.496C185.982,49.576 186.267,49.616 186.587,49.616Z" style="fill:rgb(133,133,133);fill-rule:nonzero;"/>
            <path d="M202.277,53.096C201.077,53.096 200.077,52.901 199.277,52.511C198.477,52.121 197.887,51.536 197.507,50.756C197.127,49.976 196.937,48.986 196.937,47.786L196.937,30.116L202.127,30.116L202.127,46.976C202.127,47.476 202.177,47.876 202.277,48.176C202.377,48.476 202.537,48.701 202.757,48.851C202.977,49.001 203.257,49.106 203.597,49.166L204.677,49.316L204.677,53.096L202.277,53.096Z" style="fill:rgb(133,133,133);fill-rule:nonzero;"/>
            <path d="M210.077,53.186C208.837,53.186 207.837,52.821 207.077,52.091C206.317,51.361 205.937,50.366 205.937,49.106L205.937,47.546C205.937,46.326 206.372,45.316 207.242,44.516C208.112,43.716 209.477,43.316 211.337,43.316L214.997,43.316L214.997,42.536C214.997,42.096 214.917,41.736 214.757,41.456C214.597,41.176 214.287,40.976 213.827,40.856C213.367,40.736 212.657,40.676 211.697,40.676L206.957,40.676L206.957,37.706C207.757,37.406 208.692,37.161 209.762,36.971C210.832,36.781 212.127,36.676 213.647,36.656C214.987,36.656 216.147,36.816 217.127,37.136C218.107,37.456 218.862,38.011 219.392,38.801C219.922,39.591 220.187,40.716 220.187,42.176L220.187,53.006L216.077,53.006L215.267,51.356C215.087,51.516 214.842,51.701 214.532,51.911C214.222,52.121 213.842,52.326 213.392,52.526C212.942,52.726 212.437,52.886 211.877,53.006C211.317,53.126 210.717,53.186 210.077,53.186ZM212.747,49.616C212.887,49.636 213.052,49.626 213.242,49.586C213.432,49.546 213.617,49.501 213.797,49.451C213.977,49.401 214.152,49.351 214.322,49.301C214.492,49.251 214.632,49.201 214.742,49.151C214.852,49.101 214.937,49.066 214.997,49.046L214.997,45.746L213.077,45.926C212.417,46.006 211.922,46.181 211.592,46.451C211.262,46.721 211.097,47.106 211.097,47.606L211.097,48.236C211.097,48.576 211.167,48.851 211.307,49.061C211.447,49.271 211.642,49.416 211.892,49.496C212.142,49.576 212.427,49.616 212.747,49.616Z" style="fill:rgb(133,133,133);fill-rule:nonzero;"/>
            <path d="M232.877,53.006L221.717,36.866L226.937,36.866L238.097,53.006L232.877,53.006ZM221.717,53.006L228.017,43.286L229.877,48.176L226.967,53.006L221.717,53.006ZM231.767,46.646L229.607,42.296L232.847,36.866L238.097,36.866L231.767,46.646Z" style="fill:rgb(133,133,133);fill-rule:nonzero;"/>
            <path d="M244.997,60.116L246.647,53.006C245.607,53.006 244.727,52.816 244.007,52.436C243.287,52.056 242.702,51.531 242.252,50.861C241.802,50.191 241.467,49.406 241.247,48.506L238.517,36.866L243.887,36.866L246.047,47.456C246.127,47.756 246.227,47.996 246.347,48.176C246.467,48.356 246.602,48.491 246.752,48.581C246.902,48.671 247.047,48.731 247.187,48.761C247.327,48.791 247.447,48.806 247.547,48.806L250.007,36.866L255.287,36.866L250.847,57.146L249.347,60.116L244.997,60.116Z" style="fill:rgb(133,133,133);fill-rule:nonzero;"/>
            <path d="M264.377,53.006L266.987,30.746L271.907,30.746L276.737,47.036L281.537,30.746L286.397,30.746L289.037,53.006L284.057,53.006L282.227,37.736L283.007,37.766L279.107,53.006L274.247,53.006L270.317,37.766L271.157,37.736L269.387,53.006L264.377,53.006Z" style="fill:rgb(133,133,133);fill-rule:nonzero;"/>
            <path d="M298.517,53.156C297.137,53.156 295.962,53.011 294.992,52.721C294.022,52.431 293.237,51.961 292.637,51.311C292.037,50.661 291.607,49.811 291.347,48.761C291.087,47.711 290.957,46.426 290.957,44.906C290.957,43.266 291.092,41.911 291.362,40.841C291.632,39.771 292.067,38.926 292.667,38.306C293.267,37.686 294.052,37.246 295.022,36.986C295.992,36.726 297.157,36.596 298.517,36.596C299.917,36.596 301.097,36.731 302.057,37.001C303.017,37.271 303.792,37.721 304.382,38.351C304.972,38.981 305.407,39.831 305.687,40.901C305.967,41.971 306.107,43.306 306.107,44.906C306.107,46.486 305.977,47.806 305.717,48.866C305.457,49.926 305.032,50.771 304.442,51.401C303.852,52.031 303.072,52.481 302.102,52.751C301.132,53.021 299.937,53.156 298.517,53.156ZM298.517,49.046C298.977,49.046 299.357,49.001 299.657,48.911C299.957,48.821 300.197,48.641 300.377,48.371C300.557,48.101 300.692,47.686 300.782,47.126C300.872,46.566 300.917,45.816 300.917,44.876C300.917,43.936 300.872,43.186 300.782,42.626C300.692,42.066 300.557,41.651 300.377,41.381C300.197,41.111 299.957,40.936 299.657,40.856C299.357,40.776 298.977,40.736 298.517,40.736C298.077,40.736 297.707,40.776 297.407,40.856C297.107,40.936 296.862,41.111 296.672,41.381C296.482,41.651 296.347,42.066 296.267,42.626C296.187,43.186 296.147,43.936 296.147,44.876C296.147,45.816 296.187,46.566 296.267,47.126C296.347,47.686 296.482,48.101 296.672,48.371C296.862,48.641 297.107,48.821 297.407,48.911C297.707,49.001 298.077,49.046 298.517,49.046Z" style="fill:rgb(133,133,133);fill-rule:nonzero;"/>
            <path d="M313.967,53.186C312.727,53.186 311.677,52.926 310.817,52.406C309.957,51.886 309.307,51.036 308.867,49.856C308.427,48.676 308.207,47.096 308.207,45.116C308.207,43.116 308.387,41.496 308.747,40.256C309.107,39.016 309.727,38.096 310.607,37.496C311.487,36.896 312.707,36.596 314.267,36.596C314.947,36.596 315.627,36.666 316.307,36.806C316.987,36.946 317.587,37.106 318.107,37.286L318.107,30.116L323.297,30.116L323.297,53.006L318.917,53.006L318.107,51.506C317.747,51.826 317.342,52.116 316.892,52.376C316.442,52.636 315.972,52.836 315.482,52.976C314.992,53.116 314.487,53.186 313.967,53.186ZM315.827,49.046C316.327,49.046 316.772,48.966 317.162,48.806C317.552,48.646 317.867,48.476 318.107,48.296L318.107,41.036C317.827,40.916 317.502,40.791 317.132,40.661C316.762,40.531 316.387,40.466 316.007,40.466C315.367,40.466 314.857,40.576 314.477,40.796C314.097,41.016 313.822,41.441 313.652,42.071C313.482,42.701 313.397,43.626 313.397,44.846C313.397,46.026 313.472,46.916 313.622,47.516C313.772,48.116 314.032,48.521 314.402,48.731C314.772,48.941 315.247,49.046 315.827,49.046Z" style="fill:rgb(133,133,133);fill-rule:nonzero;"/>
            <path d="M333.257,53.156C331.457,53.156 330.007,52.921 328.907,52.451C327.807,51.981 327.012,51.151 326.522,49.961C326.032,48.771 325.787,47.106 325.787,44.966C325.787,42.766 326.012,41.061 326.462,39.851C326.912,38.641 327.667,37.796 328.727,37.316C329.787,36.836 331.227,36.596 333.047,36.596C334.707,36.596 336.027,36.756 337.007,37.076C337.987,37.396 338.692,37.966 339.122,38.786C339.552,39.606 339.767,40.766 339.767,42.266C339.767,43.386 339.547,44.276 339.107,44.936C338.667,45.596 338.042,46.061 337.232,46.331C336.422,46.601 335.467,46.736 334.367,46.736L330.917,46.736C330.977,47.376 331.102,47.886 331.292,48.266C331.482,48.646 331.837,48.916 332.357,49.076C332.877,49.236 333.647,49.316 334.667,49.316L339.197,49.316L339.197,52.346C338.457,52.526 337.612,52.706 336.662,52.886C335.712,53.066 334.577,53.156 333.257,53.156ZM330.857,43.676L333.797,43.676C334.297,43.676 334.657,43.576 334.877,43.376C335.097,43.176 335.207,42.816 335.207,42.296C335.207,41.816 335.137,41.431 334.997,41.141C334.857,40.851 334.627,40.641 334.307,40.511C333.987,40.381 333.567,40.316 333.047,40.316C332.527,40.316 332.107,40.411 331.787,40.601C331.467,40.791 331.232,41.131 331.082,41.621C330.932,42.111 330.857,42.796 330.857,43.676Z" style="fill:rgb(133,133,133);fill-rule:nonzero;"/>
            <path d="M347.657,53.096C346.457,53.096 345.457,52.901 344.657,52.511C343.857,52.121 343.267,51.536 342.887,50.756C342.507,49.976 342.317,48.986 342.317,47.786L342.317,30.116L347.507,30.116L347.507,46.976C347.507,47.476 347.557,47.876 347.657,48.176C347.757,48.476 347.917,48.701 348.137,48.851C348.357,49.001 348.637,49.106 348.977,49.166L350.057,49.316L350.057,53.096L347.657,53.096Z" style="fill:rgb(133,133,133);fill-rule:nonzero;"/>
            <path d="M358.937,53.156C357.137,53.156 355.687,52.921 354.587,52.451C353.487,51.981 352.692,51.151 352.202,49.961C351.712,48.771 351.467,47.106 351.467,44.966C351.467,42.766 351.692,41.061 352.142,39.851C352.592,38.641 353.347,37.796 354.407,37.316C355.467,36.836 356.907,36.596 358.727,36.596C360.387,36.596 361.707,36.756 362.687,37.076C363.667,37.396 364.372,37.966 364.802,38.786C365.232,39.606 365.447,40.766 365.447,42.266C365.447,43.386 365.227,44.276 364.787,44.936C364.347,45.596 363.722,46.061 362.912,46.331C362.102,46.601 361.147,46.736 360.047,46.736L356.597,46.736C356.657,47.376 356.782,47.886 356.972,48.266C357.162,48.646 357.517,48.916 358.037,49.076C358.557,49.236 359.327,49.316 360.347,49.316L364.877,49.316L364.877,52.346C364.137,52.526 363.292,52.706 362.342,52.886C361.392,53.066 360.257,53.156 358.937,53.156ZM356.537,43.676L359.477,43.676C359.977,43.676 360.337,43.576 360.557,43.376C360.777,43.176 360.887,42.816 360.887,42.296C360.887,41.816 360.817,41.431 360.677,41.141C360.537,40.851 360.307,40.641 359.987,40.511C359.667,40.381 359.247,40.316 358.727,40.316C358.207,40.316 357.787,40.411 357.467,40.601C357.147,40.791 356.912,41.131 356.762,41.621C356.612,42.111 356.537,42.796 356.537,43.676Z" style="fill:rgb(133,133,133);fill-rule:nonzero;"/>
            <path d="M367.997,53.006L367.997,36.866L372.017,36.866L373.187,39.206C373.707,38.506 374.307,37.901 374.987,37.391C375.667,36.881 376.477,36.626 377.417,36.626C377.597,36.626 377.802,36.636 378.032,36.656C378.262,36.676 378.477,36.716 378.677,36.776L378.677,42.086C378.357,42.046 378.027,42.016 377.687,41.996C377.347,41.976 377.027,41.966 376.727,41.966C376.207,41.966 375.732,42.021 375.302,42.131C374.872,42.241 374.482,42.401 374.132,42.611C373.782,42.821 373.467,43.096 373.187,43.436L373.187,53.006L367.997,53.006Z" style="fill:rgb(133,133,133);fill-rule:nonzero;"/>
        </g>
    </g>
</svg>
