<?xml version="1.0" encoding="UTF-8" standalone="no"?><!DOCTYPE svg PUBLIC "-//W3C//DTD SVG 1.1//EN" "http://www.w3.org/Graphics/SVG/1.1/DTD/svg11.dtd">
<svg width="100%" height="100%" viewBox="0 0 450 150" version="1.1"
    xmlns="http://www.w3.org/2000/svg"
    xmlns:xlink="http://www.w3.org/1999/xlink" xml:space="preserve" style="fill-rule:evenodd;clip-rule:evenodd;stroke-linejoin:round;stroke-miterlimit:2;">
    <rect id="MongooseIcon" x="0" y="0" width="450" height="150" style="fill:none;"/>
    <path id="path828" d="M211.931,111.969c-6.06,-1.385 -9.479,-4.75 -10.178,-10.021c-0.26,-1.955 -0.21,-2.221 0.373,-1.997c0.37,0.141 1.813,0.387 3.206,0.544c2.33,0.264 2.553,0.381 2.767,1.452c0.659,3.294 4.158,5.211 9.459,5.183c7.667,-0.04 10.668,-3.263 11.108,-11.929l0.229,-4.5l-1.82,1.641c-2.832,2.556 -5.791,3.724 -9.469,3.738c-6.399,0.025 -10.54,-2.115 -13.698,-7.078c-2.156,-3.39 -3.224,-6.784 -3.483,-11.069c-0.31,-5.123 0.4,-8.956 2.448,-13.208c1.881,-3.907 3.905,-5.96 7.628,-7.737c2.062,-0.984 2.858,-1.115 6.795,-1.115c5.12,0 6.892,0.658 10.088,3.743l1.805,1.743l0,-2.424l0,-2.425l5.989,0l-0.143,21.768c-0.126,19.313 -0.225,22.016 -0.881,23.978c-1.443,4.315 -5.207,7.883 -9.785,9.278c-3.102,0.944 -9.264,1.16 -12.438,0.435l0,0Zm10.924,-22.235c4.318,-2.256 6.334,-6.692 6.334,-13.943c0,-6.838 -1.971,-11.111 -6.296,-13.653c-1.656,-0.974 -2.481,-1.168 -4.96,-1.168c-2.465,0 -3.306,0.196 -4.924,1.147c-3.493,2.054 -5.197,5.032 -5.942,10.385c-0.566,4.071 0.04,9.134 1.467,12.25c2.518,5.502 9.005,7.759 14.321,4.982Zm-79.018,7.067c-10.975,-1.82 -16.991,-13.085 -14.211,-26.611c1.286,-6.26 4.444,-10.418 9.821,-12.934c3.85,-1.801 9.649,-2.139 14.006,-0.816c5.612,1.705 9.668,5.725 11.641,11.538c0.749,2.206 0.945,3.785 0.972,7.857c0.052,7.565 -1.162,11.566 -4.707,15.509c-2.322,2.582 -6.834,4.893 -10.745,5.503c-3.131,0.489 -3.568,0.486 -6.777,-0.046l0,0Zm9.571,-6.537c2.309,-1.422 4.545,-4.394 5.37,-7.141c0.858,-2.853 0.701,-11.507 -0.259,-14.262c-1.467,-4.217 -5.381,-7.47 -9.586,-7.968c-4.929,-0.584 -9.258,1.86 -11.553,6.521c-1.321,2.682 -1.429,3.225 -1.57,7.871c-0.186,6.16 0.716,9.727 3.19,12.617c2.391,2.793 5.122,3.926 9.099,3.772c2.714,-0.104 3.547,-0.325 5.309,-1.41Zm96.757,6.388c-3.318,-0.722 -5.702,-1.947 -8.124,-4.176c-2.407,-2.215 -3.639,-4.144 -4.843,-7.582c-1.283,-3.662 -1.378,-12.37 -0.179,-16.422c1.535,-5.184 5.153,-9.327 9.796,-11.216c3.625,-1.474 5.017,-1.702 9.18,-1.502c3.607,0.174 4.546,0.386 6.95,1.57c3.36,1.654 6.453,4.687 7.998,7.842c0.629,1.284 1.143,2.537 1.143,2.785c0,0.983 0.798,0.377 1.057,-0.802c0.465,-2.114 3.375,-6.145 5.571,-7.715c4.124,-2.949 7.606,-3.938 12.958,-3.68c3.6,0.174 4.548,0.387 6.932,1.56c4.19,2.063 6.913,5.038 8.783,9.596l0.694,1.692l0.316,-2.329c0.895,-6.591 5.466,-10.068 13.807,-10.504c6.542,-0.343 11.971,1.585 14.311,5.082c0.924,1.379 2.175,5.239 1.807,5.574c-0.105,0.096 -1.466,0.307 -3.024,0.469l-2.834,0.295l-0.829,-1.874c-0.938,-2.121 -2.489,-3.395 -4.971,-4.082c-5.893,-1.632 -12.105,0.855 -12.105,4.847c0,1.252 0.303,1.871 1.441,2.944c1.193,1.126 2.56,1.671 7.963,3.176c8.831,2.459 10.824,3.259 12.907,5.179c0.98,0.903 1.867,1.642 1.972,1.642c0.105,0 0.225,-1.577 0.267,-3.504c0.187,-8.703 3.905,-15.138 10.54,-18.243c2.303,-1.078 3.5,-1.348 6.711,-1.516c4.755,-0.249 7.923,0.529 11.195,2.749c4.844,3.286 7.29,8.169 7.987,15.948l0.295,3.292l-15.137,0c-12.943,0 -15.136,0.089 -15.136,0.616c0,3.181 2.09,8.168 4.316,10.296c3.248,3.107 9.068,4.102 12.963,2.217c2.141,-1.037 4.579,-3.718 5.262,-5.788c0.529,-1.604 -0.026,-1.53 5.461,-0.726l1.668,0.245l-0.57,1.618c-1.371,3.884 -4.647,7.438 -8.472,9.189c-4.807,2.201 -12.244,2.203 -17.018,0.005c-2.93,-1.349 -6.178,-4.407 -7.705,-7.253l-1.281,-2.387l-0.543,1.814c-1.198,3.998 -4.085,6.795 -8.765,8.492c-3.519,1.276 -10.208,1.242 -14.368,-0.072c-3.693,-1.167 -6.835,-4.096 -8.158,-7.604l-0.864,-2.292l-1.3,2.304c-2.537,4.495 -7.317,7.554 -13.219,8.461c-8.975,1.378 -16.794,-3.187 -20.043,-11.702l-0.487,-1.275l-0.538,1.553c-2.092,6.03 -7.429,10.291 -14.258,11.38c-3.411,0.544 -4.218,0.524 -7.48,-0.186l0,0Zm9.415,-5.897c2.73,-1.272 4.958,-3.87 5.975,-6.969c1.126,-3.431 1.125,-11.682 -0.003,-14.92c-1.187,-3.41 -4.394,-6.544 -7.66,-7.485c-3.039,-0.877 -5.861,-0.637 -8.599,0.731c-2.325,1.161 -3.734,2.75 -5.201,5.866c-1.014,2.153 -1.1,2.785 -1.1,8.07c0,6.667 0.605,9.011 3.07,11.89c3.205,3.745 8.953,4.942 13.518,2.817l0,0Zm35.677,0c2.731,-1.272 4.958,-3.87 5.975,-6.969c1.126,-3.431 1.125,-11.682 -0.003,-14.92c-1.187,-3.41 -4.394,-6.544 -7.659,-7.485c-3.04,-0.877 -5.862,-0.637 -8.6,0.731c-2.325,1.161 -3.734,2.75 -5.201,5.866c-1.014,2.153 -1.1,2.785 -1.1,8.07c0,6.667 0.605,9.011 3.07,11.89c2.144,2.505 5.102,3.816 8.61,3.816c2.008,0 3.346,-0.272 4.908,-0.999l0,0Zm34.455,0.122c3.173,-1.536 4.6,-4.645 3.345,-7.289c-0.936,-1.973 -2.143,-2.566 -9.169,-4.501c-3.379,-0.931 -7.218,-2.095 -8.531,-2.588c-2.631,-0.987 -5.267,-3.269 -6.121,-5.298c-0.494,-1.175 -0.544,-0.826 -0.481,3.36c0.038,2.57 -0.085,5.883 -0.274,7.363c-0.316,2.48 -0.283,2.675 0.425,2.478c0.423,-0.117 1.676,-0.336 2.786,-0.487c1.741,-0.237 2.017,-0.173 2.017,0.467c0,1.348 1.751,4.386 3.067,5.324c2.073,1.476 4.132,2.018 7.736,2.038c2.576,0.014 3.801,-0.19 5.2,-0.867Zm38.95,-19.607c-0.833,-4.778 -2.613,-7.542 -5.95,-9.238c-2.71,-1.377 -7.574,-1.492 -10.099,-0.239c-3.403,1.688 -5.753,5.008 -6.407,9.052l-0.292,1.805l22.989,0l-0.241,-1.38Zm-294.499,5.203l0,-19.963l5.946,0l0,5.481l2.018,-2.015c3.245,-3.242 5.451,-4.103 10.512,-4.103c3.558,0 4.529,0.151 5.986,0.931c1.899,1.016 4.18,3.378 4.629,4.794c0.26,0.818 0.534,0.661 3.143,-1.8c3.601,-3.397 6.162,-4.338 11.023,-4.047c5.067,0.302 7.928,2.176 9.918,6.493c0.957,2.079 0.981,2.463 1.116,18.157l0.137,16.034l-3.187,0l-3.188,0l-0.136,-14.972c-0.126,-13.98 -0.191,-15.082 -0.984,-16.643c-1.228,-2.416 -2.715,-3.337 -5.743,-3.556c-3.119,-0.226 -5.61,0.617 -7.626,2.58c-2.721,2.649 -2.757,2.883 -2.903,18.469l-0.132,14.122l-3.127,0l-3.126,0l-0.139,-14.972c-0.137,-14.657 -0.16,-15.01 -1.113,-16.793c-1.346,-2.522 -3.079,-3.486 -6.247,-3.477c-4.221,0.013 -7.316,1.981 -9.003,5.723c-0.678,1.504 -0.781,3.298 -0.898,15.609l-0.133,13.91l-3.371,0l-3.372,0l0,-19.962Zm93.016,0l0,-19.963l5.946,0l0,5.213l2.137,-1.999c3.361,-3.144 5.31,-3.851 10.605,-3.849c3.748,0.001 4.806,0.158 6.633,0.984c2.681,1.211 4.49,3.034 5.768,5.81c0.956,2.077 0.98,2.469 1.107,17.945l0.13,15.821l-3.18,0l-3.179,0l-0.136,-14.76l-0.135,-14.759l-1.062,-1.881c-2.233,-3.956 -7.64,-5.07 -12.568,-2.589c-5.095,2.564 -5.674,4.785 -5.687,21.778l-0.009,12.211l-3.185,0l-3.185,0l0,-19.962Z" style="fill:#800;fill-rule:nonzero;"/>
</svg>