<?xml version="1.0" encoding="UTF-8" standalone="no"?>
<!DOCTYPE svg PUBLIC "-//W3C//DTD SVG 1.1//EN" "http://www.w3.org/Graphics/SVG/1.1/DTD/svg11.dtd">
<svg width="100%" height="100%" viewBox="0 0 450 150" version="1.1" xmlns="http://www.w3.org/2000/svg" xmlns:xlink="http://www.w3.org/1999/xlink" xml:space="preserve" style="fill-rule:evenodd;clip-rule:evenodd;stroke-linejoin:round;stroke-miterlimit:2;">
    <g transform="matrix(5.36988,0,0,5.36988,-435.08,-64.6309)">
        <g>
            <path d="M91.988,28.77L93.06,28.676C93.111,29.106 93.229,29.458 93.415,29.734C93.6,30.009 93.888,30.232 94.279,30.402C94.67,30.572 95.109,30.656 95.597,30.656C96.031,30.656 96.414,30.592 96.746,30.463C97.078,30.334 97.325,30.157 97.487,29.933C97.649,29.708 97.73,29.463 97.73,29.197C97.73,28.928 97.652,28.693 97.496,28.491C97.34,28.29 97.082,28.121 96.722,27.985C96.492,27.895 95.982,27.755 95.193,27.566C94.404,27.376 93.851,27.197 93.535,27.03C93.125,26.815 92.819,26.548 92.618,26.23C92.417,25.911 92.316,25.555 92.316,25.16C92.316,24.727 92.439,24.322 92.685,23.945C92.931,23.568 93.291,23.281 93.763,23.086C94.236,22.891 94.762,22.793 95.34,22.793C95.976,22.793 96.538,22.896 97.024,23.101C97.511,23.306 97.885,23.608 98.146,24.006C98.408,24.405 98.549,24.856 98.568,25.36L97.478,25.442C97.42,24.899 97.221,24.489 96.884,24.211C96.546,23.934 96.047,23.795 95.387,23.795C94.699,23.795 94.198,23.921 93.884,24.173C93.569,24.425 93.412,24.729 93.412,25.084C93.412,25.393 93.523,25.647 93.746,25.846C93.965,26.045 94.536,26.249 95.46,26.458C96.384,26.667 97.017,26.85 97.361,27.006C97.861,27.237 98.23,27.529 98.469,27.882C98.707,28.236 98.826,28.643 98.826,29.104C98.826,29.561 98.695,29.991 98.433,30.396C98.172,30.8 97.796,31.114 97.305,31.339C96.815,31.564 96.263,31.676 95.65,31.676C94.873,31.676 94.221,31.563 93.696,31.336C93.171,31.11 92.759,30.769 92.46,30.314C92.161,29.859 92.004,29.344 91.988,28.77Z" style="fill-rule:nonzero;"/>
            <path d="M106.888,30.61C107.416,30.973 107.902,31.239 108.347,31.406L108.013,32.197C107.396,31.975 106.781,31.623 106.168,31.143C105.531,31.498 104.828,31.676 104.058,31.676C103.281,31.676 102.576,31.489 101.943,31.114C101.31,30.739 100.823,30.211 100.481,29.531C100.139,28.852 99.969,28.086 99.969,27.235C99.969,26.387 100.14,25.615 100.484,24.92C100.828,24.225 101.317,23.696 101.952,23.332C102.587,22.969 103.297,22.787 104.082,22.787C104.875,22.787 105.59,22.976 106.226,23.353C106.863,23.73 107.348,24.257 107.682,24.935C108.016,25.613 108.183,26.377 108.183,27.229C108.183,27.936 108.076,28.572 107.861,29.136C107.646,29.7 107.322,30.192 106.888,30.61ZM104.387,29.156C105.043,29.34 105.584,29.614 106.01,29.977C106.678,29.367 107.012,28.451 107.012,27.229C107.012,26.533 106.893,25.926 106.657,25.406C106.421,24.887 106.075,24.484 105.62,24.197C105.165,23.909 104.654,23.766 104.088,23.766C103.24,23.766 102.537,24.056 101.978,24.636C101.42,25.216 101.14,26.082 101.14,27.235C101.14,28.352 101.417,29.209 101.97,29.807C102.522,30.405 103.228,30.703 104.088,30.703C104.494,30.703 104.877,30.627 105.236,30.475C104.881,30.244 104.506,30.08 104.111,29.983L104.387,29.156Z" style="fill-rule:nonzero;"/>
            <path d="M109.666,31.53L109.666,22.94L110.803,22.94L110.803,30.516L115.033,30.516L115.033,31.53L109.666,31.53Z" style="fill-rule:nonzero;"/>
            <path d="M118.888,28.77L119.961,28.676C120.012,29.106 120.13,29.458 120.315,29.734C120.501,30.009 120.789,30.232 121.179,30.402C121.57,30.572 122.01,30.656 122.498,30.656C122.931,30.656 123.314,30.592 123.646,30.463C123.978,30.334 124.225,30.157 124.387,29.933C124.55,29.708 124.631,29.463 124.631,29.197C124.631,28.928 124.553,28.693 124.396,28.491C124.24,28.29 123.982,28.121 123.623,27.985C123.392,27.895 122.883,27.755 122.094,27.566C121.304,27.376 120.752,27.197 120.435,27.03C120.025,26.815 119.72,26.548 119.518,26.23C119.317,25.911 119.217,25.555 119.217,25.16C119.217,24.727 119.34,24.322 119.586,23.945C119.832,23.568 120.191,23.281 120.664,23.086C121.137,22.891 121.662,22.793 122.24,22.793C122.877,22.793 123.438,22.896 123.925,23.101C124.411,23.306 124.785,23.608 125.047,24.006C125.308,24.405 125.449,24.856 125.469,25.36L124.379,25.442C124.32,24.899 124.122,24.489 123.784,24.211C123.446,23.934 122.947,23.795 122.287,23.795C121.599,23.795 121.098,23.921 120.784,24.173C120.47,24.425 120.312,24.729 120.312,25.084C120.312,25.393 120.424,25.647 120.646,25.846C120.865,26.045 121.436,26.249 122.36,26.458C123.284,26.667 123.918,26.85 124.262,27.006C124.762,27.237 125.131,27.529 125.369,27.882C125.607,28.236 125.726,28.643 125.726,29.104C125.726,29.561 125.596,29.991 125.334,30.396C125.072,30.8 124.696,31.114 124.206,31.339C123.716,31.564 123.164,31.676 122.551,31.676C121.773,31.676 121.122,31.563 120.596,31.336C120.071,31.11 119.659,30.769 119.36,30.314C119.061,29.859 118.904,29.344 118.888,28.77Z" style="fill-rule:nonzero;"/>
            <path d="M131.404,29.526L132.494,29.66C132.322,30.297 132.004,30.791 131.539,31.143C131.074,31.494 130.48,31.67 129.758,31.67C128.847,31.67 128.126,31.39 127.593,30.829C127.059,30.269 126.793,29.483 126.793,28.471C126.793,27.424 127.062,26.612 127.601,26.033C128.14,25.455 128.84,25.166 129.699,25.166C130.531,25.166 131.211,25.449 131.738,26.016C132.265,26.582 132.529,27.379 132.529,28.406C132.529,28.469 132.527,28.563 132.523,28.688L127.883,28.688C127.922,29.371 128.115,29.895 128.463,30.258C128.81,30.621 129.244,30.803 129.763,30.803C130.15,30.803 130.48,30.701 130.754,30.498C131.027,30.295 131.244,29.971 131.404,29.526ZM127.941,27.821L131.416,27.821C131.369,27.297 131.236,26.905 131.017,26.643C130.681,26.237 130.246,26.033 129.711,26.033C129.226,26.033 128.819,26.196 128.489,26.52C128.159,26.844 127.976,27.278 127.941,27.821Z" style="fill-rule:nonzero;"/>
            <path d="M133.806,31.53L133.806,25.307L134.756,25.307L134.756,26.25C134.998,25.809 135.221,25.518 135.427,25.377C135.632,25.237 135.857,25.166 136.103,25.166C136.459,25.166 136.82,25.28 137.187,25.506L136.824,26.485C136.566,26.332 136.308,26.256 136.051,26.256C135.82,26.256 135.613,26.325 135.429,26.464C135.246,26.603 135.115,26.795 135.037,27.041C134.92,27.416 134.861,27.826 134.861,28.272L134.861,31.53L133.806,31.53Z" style="fill-rule:nonzero;"/>
            <path d="M139.543,31.53L137.176,25.307L138.289,25.307L139.625,29.033C139.769,29.436 139.902,29.854 140.023,30.287C140.117,29.959 140.248,29.565 140.416,29.104L141.799,25.307L142.883,25.307L140.527,31.53L139.543,31.53Z" style="fill-rule:nonzero;"/>
            <path d="M148.074,29.526L149.164,29.66C148.992,30.297 148.674,30.791 148.209,31.143C147.744,31.494 147.15,31.67 146.428,31.67C145.517,31.67 144.796,31.39 144.262,30.829C143.729,30.269 143.463,29.483 143.463,28.471C143.463,27.424 143.732,26.612 144.271,26.033C144.81,25.455 145.51,25.166 146.369,25.166C147.201,25.166 147.881,25.449 148.408,26.016C148.935,26.582 149.199,27.379 149.199,28.406C149.199,28.469 149.197,28.563 149.193,28.688L144.553,28.688C144.592,29.371 144.785,29.895 145.133,30.258C145.48,30.621 145.914,30.803 146.433,30.803C146.82,30.803 147.15,30.701 147.424,30.498C147.697,30.295 147.914,29.971 148.074,29.526ZM144.611,27.821L148.086,27.821C148.039,27.297 147.906,26.905 147.687,26.643C147.351,26.237 146.916,26.033 146.381,26.033C145.896,26.033 145.489,26.196 145.159,26.52C144.829,26.844 144.646,27.278 144.611,27.821Z" style="fill-rule:nonzero;"/>
            <path d="M150.476,31.53L150.476,25.307L151.426,25.307L151.426,26.25C151.668,25.809 151.891,25.518 152.096,25.377C152.302,25.237 152.527,25.166 152.773,25.166C153.129,25.166 153.49,25.28 153.857,25.506L153.494,26.485C153.236,26.332 152.978,26.256 152.721,26.256C152.49,26.256 152.283,26.325 152.099,26.464C151.916,26.603 151.785,26.795 151.707,27.041C151.59,27.416 151.531,27.826 151.531,28.272L151.531,31.53L150.476,31.53Z" style="fill-rule:nonzero;"/>
        </g>
    </g>
</svg>
