<?xml version="1.0" encoding="UTF-8" standalone="no"?>
<!DOCTYPE svg PUBLIC "-//W3C//DTD SVG 1.1//EN" "http://www.w3.org/Graphics/SVG/1.1/DTD/svg11.dtd">
<svg width="100%" height="100%" viewBox="0 0 450 150" version="1.1"
    xmlns="http://www.w3.org/2000/svg"
    xmlns:xlink="http://www.w3.org/1999/xlink" xml:space="preserve" style="fill-rule:evenodd;clip-rule:evenodd;">
    <rect id="MongoDBIcon" x="0" y="0" width="450" height="150" style="fill:none;"/>
    <g transform="matrix(0.235005,0,0,0.235005,80.176,25.6416)">
        <g id="Layer1">
            <g>
                <path d="M323.205,324.227C326.038,300.626 325.189,297.165 342.768,300.988L347.231,301.38C360.748,301.995 378.43,299.206 388.818,294.38C411.18,284.004 424.44,266.68 402.39,271.232C352.093,281.608 348.635,264.577 348.635,264.577C401.746,185.774 423.948,85.741 404.784,61.255C352.514,-5.534 262.036,26.049 260.522,26.869L260.04,26.958C250.102,24.896 238.98,23.664 226.486,23.462C203.725,23.088 186.454,29.429 173.353,39.366C173.353,39.366 11.945,-27.132 19.454,122.994C21.051,154.93 65.231,364.649 117.924,301.304C137.183,278.141 155.795,258.556 155.795,258.556C165.037,264.696 176.102,267.828 187.707,266.703L188.604,265.938C188.323,268.814 188.447,271.627 188.963,274.957C175.391,290.124 179.379,292.787 152.24,298.373C124.783,304.032 140.914,314.107 151.443,316.74C164.211,319.933 193.748,324.456 213.711,296.516L212.916,299.704C218.241,303.964 217.881,330.323 218.636,349.156C219.392,367.99 220.653,385.565 224.492,395.927C228.331,406.287 232.861,432.977 268.528,425.333C298.337,418.945 321.128,409.751 323.205,324.226" style="fill-rule:nonzero;stroke:black;stroke-width:37.4px;"/>
                <path d="M402.395,271.23C352.093,281.606 348.635,264.575 348.635,264.575C401.746,185.767 423.948,85.732 404.788,61.249C352.518,-5.536 262.036,26.049 260.526,26.869L260.04,26.956C250.102,24.893 238.98,23.664 226.48,23.46C203.719,23.087 186.454,29.427 173.353,39.362C173.353,39.362 11.942,-27.133 19.449,122.992C21.046,154.93 65.225,364.649 117.92,301.304C137.18,278.141 155.789,258.556 155.789,258.556C165.032,264.696 176.097,267.828 187.697,266.703L188.598,265.938C188.318,268.814 188.446,271.627 188.959,274.957C175.384,290.124 179.373,292.787 152.236,298.373C124.777,304.032 140.908,314.107 151.44,316.74C164.208,319.933 193.747,324.456 213.706,296.516L212.91,299.704C218.229,303.964 221.964,327.415 221.338,348.673C220.712,369.932 220.294,384.527 224.485,395.927C228.676,407.327 232.853,432.977 268.527,425.333C298.336,418.945 313.783,402.391 315.932,374.778C317.457,355.147 320.908,358.049 321.126,340.498L323.894,332.189C327.086,305.578 324.401,296.993 342.766,300.986L347.229,301.378C360.746,301.993 378.437,299.204 388.82,294.378C411.178,284.002 424.438,266.678 402.393,271.23L402.395,271.23Z" style="fill:rgb(51,103,145);fill-rule:nonzero;"/>
                <path d="M215.866,286.484C214.481,336 216.214,385.861 221.059,397.979C225.907,410.097 236.282,433.667 271.959,426.024C301.765,419.634 312.61,407.268 317.316,379.973C320.782,359.891 327.464,304.119 328.321,292.692" style="fill:none;fill-rule:nonzero;stroke:white;stroke-width:12.47px;stroke-linecap:round;stroke-linejoin:round;"/>
                <path d="M173.104,38.256C173.104,38.256 11.583,-27.76 19.092,122.365C20.689,154.303 64.871,364.029 117.565,300.681C136.821,277.515 154.236,259.346 154.236,259.346" style="fill:none;fill-rule:nonzero;stroke:white;stroke-width:12.47px;stroke-linecap:round;stroke-linejoin:round;"/>
                <path d="M260.349,26.207C254.758,27.96 350.197,-8.682 404.436,60.624C423.595,85.108 401.393,185.143 348.283,263.953" style="fill:none;fill-rule:nonzero;stroke:white;stroke-width:12.47px;stroke-linecap:round;stroke-linejoin:round;"/>
                <path d="M348.282,263.953C348.282,263.953 351.743,280.989 402.046,270.606C424.086,266.054 410.822,283.38 388.469,293.761C370.124,302.275 328.995,304.457 328.323,292.692C326.594,262.337 349.97,271.559 348.283,263.953C346.758,257.103 336.304,250.38 329.389,233.615C323.352,218.982 246.593,106.766 350.676,123.432C354.489,122.643 323.53,24.43 226.123,22.833C128.738,21.236 131.933,142.595 131.933,142.595" style="fill:none;fill-rule:nonzero;stroke:white;stroke-width:12.47px;stroke-linecap:round;stroke-linejoin:bevel;"/>
                <path d="M188.604,274.334C175.027,289.5 179.02,292.163 151.881,297.751C124.422,303.411 140.555,313.484 151.084,316.116C163.852,319.311 193.391,323.834 213.35,295.887C219.428,287.378 213.314,273.801 204.965,270.34C200.931,268.669 195.537,266.575 188.604,274.334Z" style="fill:none;fill-rule:nonzero;stroke:white;stroke-width:12.47px;stroke-linecap:round;stroke-linejoin:round;"/>
                <path d="M187.715,274.069C186.347,265.152 190.645,254.541 195.251,242.127C202.173,223.501 218.144,204.872 205.368,145.788C195.845,101.759 131.972,136.625 131.932,142.595C131.893,148.563 134.821,172.855 130.865,201.143C125.703,238.056 154.353,269.275 187.344,266.081" style="fill:none;fill-rule:nonzero;stroke:white;stroke-width:12.47px;stroke-linecap:round;stroke-linejoin:round;"/>
                <path d="M172.517,141.7C172.229,143.739 176.25,149.18 181.493,149.907C186.727,150.637 191.207,146.385 191.491,144.348C191.775,142.309 187.759,140.063 182.514,139.333C177.277,138.602 172.795,139.666 172.518,141.7L172.517,141.7Z" style="fill:white;fill-rule:nonzero;stroke:white;stroke-width:4.16px;"/>
                <path d="M331.941,137.543C332.225,139.582 328.209,145.023 322.965,145.75C317.727,146.48 313.247,142.228 312.96,140.191C312.683,138.152 316.7,135.906 321.939,135.176C327.178,134.446 331.657,135.509 331.941,137.544L331.941,137.543Z" style="fill:white;fill-rule:nonzero;stroke:white;stroke-width:2.08px;"/>
                <path d="M350.676,123.432C351.539,139.426 347.231,150.32 346.688,167.346C345.884,192.094 358.487,220.42 339.497,248.781" style="fill:none;fill-rule:nonzero;stroke:white;stroke-width:12.47px;stroke-linecap:round;stroke-linejoin:round;"/>
            </g>
        </g>
    </g>
    <g transform="matrix(22.5848,0,0,19.8642,195.559,72.9055)">
        <path d="M0.865,-0.794C0.865,-0.694 0.835,-0.616 0.776,-0.559C0.717,-0.502 0.635,-0.474 0.532,-0.474L0.12,-0.474L0.121,-0.001L0.009,-0L0.009,-1.112L0.563,-1.114C0.658,-1.114 0.732,-1.086 0.786,-1.029C0.838,-0.972 0.865,-0.894 0.865,-0.794ZM0.752,-0.79C0.752,-0.946 0.677,-1.024 0.528,-1.024L0.12,-1.025L0.12,-0.562L0.507,-0.562C0.67,-0.562 0.752,-0.638 0.752,-0.79Z" style="fill-rule:nonzero;"/>
    </g>
    <g transform="matrix(22.5848,0,0,19.8642,214.433,72.9055)">
        <path d="M0.778,-0.365C0.778,-0.246 0.747,-0.154 0.685,-0.087C0.616,-0.012 0.515,0.025 0.382,0.025C0.319,0.025 0.264,0.016 0.217,-0.002C0.169,-0.019 0.128,-0.047 0.093,-0.085C0.029,-0.156 -0.003,-0.25 -0.003,-0.365C-0.003,-0.481 0.028,-0.573 0.09,-0.641C0.159,-0.717 0.256,-0.755 0.382,-0.755C0.515,-0.755 0.616,-0.718 0.684,-0.644C0.747,-0.577 0.778,-0.484 0.778,-0.365ZM0.681,-0.365C0.681,-0.572 0.581,-0.676 0.382,-0.676C0.292,-0.676 0.221,-0.648 0.17,-0.593C0.145,-0.566 0.127,-0.534 0.114,-0.496C0.1,-0.457 0.094,-0.414 0.094,-0.365C0.094,-0.27 0.119,-0.194 0.169,-0.138C0.218,-0.081 0.289,-0.053 0.382,-0.053C0.485,-0.053 0.561,-0.082 0.611,-0.14C0.635,-0.166 0.653,-0.198 0.664,-0.235C0.675,-0.272 0.681,-0.316 0.681,-0.365Z" style="fill-rule:nonzero;"/>
    </g>
    <g transform="matrix(22.5848,0,0,19.8642,233.094,72.9055)">
        <path d="M0.701,-0.202C0.701,-0.052 0.589,0.023 0.364,0.023C0.295,0.023 0.238,0.018 0.191,0.007C0.143,-0.004 0.105,-0.021 0.076,-0.045C0.053,-0.063 0.035,-0.087 0.022,-0.117C0.009,-0.146 0,-0.183 -0.004,-0.227L0.1,-0.228C0.1,-0.169 0.118,-0.126 0.155,-0.098C0.194,-0.065 0.264,-0.048 0.364,-0.048C0.521,-0.048 0.6,-0.095 0.6,-0.189C0.6,-0.244 0.574,-0.281 0.521,-0.302C0.51,-0.307 0.447,-0.318 0.331,-0.335C0.214,-0.352 0.142,-0.367 0.113,-0.38C0.051,-0.409 0.02,-0.462 0.02,-0.539C0.02,-0.614 0.048,-0.669 0.103,-0.706C0.13,-0.721 0.165,-0.733 0.206,-0.742C0.247,-0.75 0.294,-0.754 0.348,-0.754C0.564,-0.754 0.672,-0.673 0.672,-0.511L0.573,-0.511C0.573,-0.625 0.497,-0.682 0.345,-0.682C0.268,-0.682 0.21,-0.671 0.172,-0.648C0.134,-0.624 0.115,-0.589 0.115,-0.541C0.115,-0.496 0.141,-0.464 0.192,-0.445C0.222,-0.434 0.291,-0.422 0.399,-0.409C0.496,-0.398 0.562,-0.384 0.598,-0.365C0.667,-0.333 0.701,-0.279 0.701,-0.202Z" style="fill-rule:nonzero;"/>
    </g>
    <g transform="matrix(22.5848,0,0,19.8642,249.084,72.9055)">
        <path d="M0.389,0.002C0.373,0.005 0.359,0.008 0.347,0.009C0.334,0.01 0.325,0.011 0.32,0.011C0.252,0.011 0.203,-0.001 0.173,-0.025C0.143,-0.048 0.128,-0.09 0.128,-0.149L0.128,-0.654L0.004,-0.654L0.004,-0.729L0.127,-0.729L0.128,-0.97L0.223,-0.97L0.223,-0.728L0.389,-0.729L0.389,-0.653L0.223,-0.654L0.223,-0.163C0.223,-0.126 0.231,-0.101 0.248,-0.087C0.264,-0.073 0.293,-0.066 0.335,-0.066C0.341,-0.065 0.348,-0.066 0.355,-0.067C0.362,-0.068 0.373,-0.071 0.388,-0.074L0.389,0.002Z" style="fill-rule:nonzero;"/>
    </g>
    <g transform="matrix(22.5848,0,0,19.8642,258.457,72.9055)">
        <path d="M0.772,-0.023C0.772,0.198 0.648,0.309 0.399,0.309C0.269,0.309 0.177,0.288 0.122,0.245C0.075,0.208 0.046,0.149 0.035,0.068L0.133,0.067C0.144,0.126 0.165,0.168 0.195,0.191C0.235,0.222 0.302,0.238 0.396,0.238C0.496,0.238 0.568,0.215 0.612,0.17C0.655,0.125 0.677,0.06 0.677,-0.023L0.676,-0.153C0.616,-0.059 0.514,-0.012 0.371,-0.012C0.252,-0.012 0.159,-0.045 0.094,-0.11C0.064,-0.142 0.041,-0.181 0.026,-0.227C0.01,-0.272 0.002,-0.324 0.002,-0.383C0.002,-0.5 0.033,-0.59 0.095,-0.652C0.16,-0.72 0.255,-0.754 0.379,-0.754C0.464,-0.754 0.533,-0.736 0.586,-0.701C0.604,-0.688 0.634,-0.655 0.676,-0.604L0.677,-0.73L0.772,-0.73L0.772,-0.023ZM0.677,-0.387C0.677,-0.474 0.653,-0.544 0.605,-0.597C0.556,-0.649 0.485,-0.675 0.392,-0.675C0.299,-0.675 0.228,-0.649 0.177,-0.598C0.126,-0.546 0.1,-0.474 0.1,-0.383C0.1,-0.186 0.2,-0.088 0.399,-0.088C0.442,-0.088 0.481,-0.095 0.514,-0.108C0.547,-0.121 0.577,-0.141 0.603,-0.167C0.652,-0.218 0.677,-0.292 0.677,-0.387Z" style="fill-rule:nonzero;"/>
    </g>
    <g transform="matrix(22.5848,0,0,19.8642,277.276,72.9055)">
        <path d="M0.419,-0.655C0.39,-0.66 0.364,-0.663 0.339,-0.663C0.182,-0.663 0.104,-0.561 0.104,-0.356L0.105,-0.001L0.01,-0.001L0.009,-0.728L0.104,-0.729L0.104,-0.598L0.109,-0.598C0.125,-0.649 0.15,-0.688 0.185,-0.714C0.223,-0.739 0.28,-0.752 0.355,-0.752L0.394,-0.752C0.404,-0.752 0.412,-0.752 0.419,-0.751L0.419,-0.655Z" style="fill-rule:nonzero;"/>
    </g>
    <g transform="matrix(22.5848,0,0,19.8642,286.259,72.9055)">
        <path d="M0.78,-0.345L0.101,-0.345C0.101,-0.262 0.124,-0.194 0.17,-0.141C0.223,-0.08 0.3,-0.049 0.399,-0.049C0.54,-0.049 0.628,-0.112 0.663,-0.238L0.766,-0.238C0.751,-0.166 0.714,-0.105 0.657,-0.056C0.624,-0.03 0.586,-0.01 0.543,0.005C0.499,0.019 0.451,0.026 0.4,0.026C0.271,0.026 0.172,-0.013 0.101,-0.09C0.036,-0.159 0.003,-0.253 0.003,-0.371C0.003,-0.488 0.037,-0.581 0.105,-0.65C0.173,-0.718 0.269,-0.752 0.392,-0.752C0.458,-0.752 0.516,-0.743 0.565,-0.724C0.614,-0.705 0.656,-0.675 0.689,-0.636C0.75,-0.565 0.78,-0.468 0.78,-0.345ZM0.68,-0.411C0.68,-0.481 0.653,-0.544 0.6,-0.599C0.546,-0.654 0.477,-0.682 0.392,-0.682C0.349,-0.682 0.31,-0.676 0.275,-0.663C0.24,-0.65 0.209,-0.63 0.182,-0.603C0.14,-0.558 0.113,-0.494 0.101,-0.411L0.68,-0.411Z" style="fill-rule:nonzero;"/>
    </g>
    <g transform="matrix(22.5848,0,0,19.8642,304.304,72.9055)">
        <path d="M0.925,-0.298C0.925,-0.081 0.779,0.028 0.486,0.028C0.311,0.028 0.183,-0.009 0.102,-0.084C0.036,-0.145 0.003,-0.239 0.003,-0.364L0.121,-0.364C0.121,-0.162 0.243,-0.061 0.486,-0.061C0.603,-0.061 0.687,-0.082 0.739,-0.124C0.783,-0.16 0.805,-0.217 0.805,-0.295C0.805,-0.372 0.775,-0.427 0.715,-0.458C0.681,-0.475 0.598,-0.496 0.466,-0.521C0.3,-0.551 0.192,-0.581 0.143,-0.612C0.072,-0.657 0.036,-0.732 0.036,-0.838C0.036,-0.938 0.066,-1.012 0.127,-1.06C0.192,-1.113 0.304,-1.14 0.463,-1.14C0.75,-1.14 0.893,-1.026 0.893,-0.799L0.774,-0.799C0.774,-0.969 0.668,-1.054 0.455,-1.054C0.348,-1.054 0.27,-1.037 0.221,-1.003C0.174,-0.966 0.151,-0.913 0.151,-0.842C0.151,-0.768 0.181,-0.716 0.241,-0.685C0.273,-0.668 0.367,-0.644 0.523,-0.613C0.67,-0.586 0.769,-0.556 0.82,-0.521C0.89,-0.478 0.925,-0.403 0.925,-0.298Z" style="fill-rule:nonzero;"/>
    </g>
    <g transform="matrix(22.5848,0,0,19.8642,326.421,72.9055)">
        <path d="M1.147,0.025L1.075,0.103L0.901,-0.042C0.864,-0.019 0.82,-0.001 0.767,0.011C0.714,0.023 0.653,0.029 0.582,0.029C0.401,0.029 0.259,-0.025 0.155,-0.133C0.05,-0.24 -0.002,-0.382 -0.002,-0.557C-0.002,-0.736 0.05,-0.879 0.153,-0.984C0.256,-1.089 0.399,-1.142 0.58,-1.142C0.673,-1.142 0.756,-1.128 0.829,-1.1C0.902,-1.072 0.964,-1.029 1.015,-0.972C1.111,-0.868 1.159,-0.73 1.159,-0.557C1.159,-0.46 1.144,-0.375 1.115,-0.302C1.086,-0.228 1.04,-0.165 0.979,-0.114L1.147,0.025ZM1.046,-0.557C1.046,-0.633 1.036,-0.701 1.015,-0.761C0.994,-0.82 0.962,-0.872 0.919,-0.917C0.837,-1.008 0.724,-1.054 0.581,-1.054C0.44,-1.054 0.326,-1.01 0.241,-0.923C0.155,-0.836 0.112,-0.714 0.112,-0.557C0.112,-0.406 0.155,-0.286 0.242,-0.196C0.328,-0.105 0.441,-0.06 0.581,-0.06C0.65,-0.06 0.712,-0.071 0.767,-0.092C0.822,-0.113 0.872,-0.145 0.916,-0.187C1.003,-0.278 1.046,-0.401 1.046,-0.557Z" style="fill-rule:nonzero;"/>
    </g>
    <g transform="matrix(22.5848,0,0,19.8642,354.093,72.9055)">
        <path d="M0.814,-0.001L0.009,-0L0.009,-1.112L0.12,-1.114L0.12,-0.094L0.815,-0.094L0.814,-0.001Z" style="fill-rule:nonzero;"/>
    </g>
    <g transform="matrix(0.447393,0,0,0.413838,184.928,40.2884)">
        <text x="23.974px" y="107.816px" style="font-family:'OpenSans-Regular', 'Open Sans', sans-serif;font-size:16px;">t<tspan x="29.942px 40.083px 49.379px 55.1px 67.865px 77.849px 84.701px 89.068px 99.192px 103.051px 111.004px 116.725px 131.928px 141.912px 149.865px 155.833px 161.554px 170.772px 180.897px 189.233px 198.451px 208.591px 216.528px 225.825px 235.95px 241.67px 251.655px 261.779px 271.076px 281.216px 286.937px 294.89px 304.874px 315.014px 321.865px 329.803px 339.099px 344.82px 354.945px 364.163px 370.131px 379.35px 389.475px 398.693px 406.646px " y="107.816px 107.816px 107.816px 107.816px 107.816px 107.816px 107.816px 107.816px 107.816px 107.816px 107.816px 107.816px 107.816px 107.816px 107.816px 107.816px 107.816px 107.816px 107.816px 107.816px 107.816px 107.816px 107.816px 107.816px 107.816px 107.816px 107.816px 107.816px 107.816px 107.816px 107.816px 107.816px 107.816px 107.816px 107.816px 107.816px 107.816px 107.816px 107.816px 107.816px 107.816px 107.816px 107.816px 107.816px 107.816px ">he world&apos;s most advanced open source database</tspan>
        </text>
    </g>
</svg>
