<?xml version="1.0" encoding="UTF-8" standalone="no"?><!DOCTYPE svg PUBLIC "-//W3C//DTD SVG 1.1//EN" "http://www.w3.org/Graphics/SVG/1.1/DTD/svg11.dtd">
<svg width="100%" height="100%" viewBox="0 0 450 150" version="1.1"
    xmlns="http://www.w3.org/2000/svg"
    xmlns:xlink="http://www.w3.org/1999/xlink" xml:space="preserve" style="fill-rule:evenodd;clip-rule:evenodd;stroke-linejoin:round;stroke-miterlimit:2;">
    <rect id="SequelizeIcon" x="0" y="0" width="450" height="150" style="fill:none;"/>
    <g id="SequelizeIcon1">
        <g>
            <g>
                <path d="M130.785,61.035l0,27.778l-23.417,13.965l-0.212,0.194l0,10.382l0.212,0.201l32.979,-19.202l0,-38.706l-0.312,-0.077l-9.297,5.239l0.047,0.226" style="fill:#2f406a;fill-rule:nonzero;"/>
                <path d="M83.876,89.041l23.492,13.737l0,10.777l-33.205,-19.278l0,-38.554l0.341,-0.052l9.271,5.433l0.101,0.311l0,27.626" style="fill:#2379bd;fill-rule:nonzero;"/>
                <path d="M83.876,61.415l-9.713,-5.692l33.13,-19.278l33.054,19.202l-9.562,5.388l-23.492,-13.509l-23.417,13.889" style="fill:#03afef;fill-rule:nonzero;"/>
                <path d="M106.965,85.864l-0.254,-0.262l0,-10.431l0.254,-0.132l0.062,-0.257l8.871,-5.216l0.272,0.061l0,10.747l-9.205,5.49" style="fill:#2f406a;fill-rule:nonzero;"/>
                <path d="M97.607,80.709l0,-11.159l0.257,-0.013l9.024,5.294l0.077,0.208l0,10.825l-9.358,-5.155" style="fill:#2379bd;fill-rule:nonzero;"/>
                <path d="M106.811,64.06l-9.204,5.49l9.358,5.489l9.205,-5.412l-9.359,-5.567" style="fill:#03afef;fill-rule:nonzero;"/>
                <path d="M95.51,92.668l-0.254,-0.262l0,-10.431l0.254,-0.132l0.062,-0.257l8.871,-5.216l0.272,0.061l0,10.747l-9.205,5.49" style="fill:#2f406a;fill-rule:nonzero;"/>
                <path d="M86.152,87.513l0,-11.159l0.257,-0.013l9.024,5.294l0.077,0.208l0,10.825l-9.358,-5.155" style="fill:#2379bd;fill-rule:nonzero;"/>
                <path d="M95.357,70.864l-9.205,5.49l9.358,5.489l9.205,-5.412l-9.358,-5.567" style="fill:#03afef;fill-rule:nonzero;"/>
                <path d="M119.238,92.925l-0.254,-0.261l0,-10.431l0.254,-0.132l0.062,-0.257l8.871,-5.217l0.272,0.062l0,10.747l-9.205,5.489" style="fill:#2f406a;fill-rule:nonzero;"/>
                <path d="M109.88,87.771l0,-11.16l0.257,-0.013l9.024,5.294l0.077,0.209l0,10.824l-9.358,-5.154" style="fill:#2379bd;fill-rule:nonzero;"/>
                <path d="M119.084,71.122l-9.204,5.489l9.358,5.49l9.205,-5.412l-9.359,-5.567" style="fill:#03afef;fill-rule:nonzero;"/>
                <path d="M107.783,99.73l-0.254,-0.262l0,-10.431l0.254,-0.132l0.062,-0.257l8.872,-5.216l0.271,0.061l0,10.747l-9.205,5.49" style="fill:#2f406a;fill-rule:nonzero;"/>
                <path d="M98.425,94.575l0,-11.16l0.257,-0.012l9.024,5.293l0.077,0.209l0,10.825l-9.358,-5.155" style="fill:#2379bd;fill-rule:nonzero;"/>
                <path d="M107.63,77.926l-9.205,5.489l9.358,5.49l9.205,-5.412l-9.358,-5.567" style="fill:#03afef;fill-rule:nonzero;"/>
                <path d="M106.965,71.07l-0.254,-0.262l0,-10.43l0.254,-0.132l0.062,-0.258l8.871,-5.216l0.272,0.061l0,10.748l-9.205,5.489" style="fill:#2f406a;fill-rule:nonzero;"/>
                <path d="M97.607,65.916l0,-11.16l0.257,-0.013l9.024,5.294l0.077,0.209l0,10.824l-9.358,-5.154" style="fill:#2379bd;fill-rule:nonzero;"/>
                <path d="M106.811,49.266l-9.204,5.49l9.358,5.49l9.205,-5.413l-9.359,-5.567" style="fill:#03afef;fill-rule:nonzero;"/>
                <path d="M95.51,77.874l-0.254,-0.262l0,-10.43l0.254,-0.132l0.062,-0.258l8.871,-5.216l0.272,0.061l0,10.748l-9.205,5.489" style="fill:#2f406a;fill-rule:nonzero;"/>
                <path d="M86.152,72.72l0,-11.16l0.257,-0.013l9.024,5.294l0.077,0.209l0,10.824l-9.358,-5.154" style="fill:#2379bd;fill-rule:nonzero;"/>
                <path d="M95.357,56.07l-9.205,5.49l9.358,5.49l9.205,-5.413l-9.358,-5.567" style="fill:#03afef;fill-rule:nonzero;"/>
                <path d="M119.238,78.132l-0.254,-0.262l0,-10.43l0.254,-0.133l0.062,-0.257l8.871,-5.216l0.272,0.061l0,10.747l-9.205,5.49" style="fill:#2f406a;fill-rule:nonzero;"/>
                <path d="M109.88,72.977l0,-11.159l0.257,-0.013l9.024,5.294l0.077,0.208l0,10.825l-9.358,-5.155" style="fill:#2379bd;fill-rule:nonzero;"/>
                <path d="M119.084,56.328l-9.204,5.49l9.358,5.489l9.205,-5.412l-9.359,-5.567" style="fill:#03afef;fill-rule:nonzero;"/>
                <path d="M107.783,84.936l-0.254,-0.262l0,-10.431l0.254,-0.132l0.062,-0.257l8.872,-5.216l0.271,0.061l0,10.747l-9.205,5.49" style="fill:#2f406a;fill-rule:nonzero;"/>
                <path d="M98.425,79.781l0,-11.159l0.257,-0.013l9.024,5.294l0.077,0.208l0,10.825l-9.358,-5.155" style="fill:#2379bd;fill-rule:nonzero;"/>
                <path d="M107.63,63.132l-9.205,5.49l9.358,5.489l9.205,-5.412l-9.358,-5.567" style="fill:#03afef;fill-rule:nonzero;"/>
            </g>
            <text x="163.996px" y="92.57px" style="font-family:'TitilliumWeb-Regular', 'Titillium Web';font-size:53.773px;fill:#399af3;">S<tspan x="192.91px 219.85px 247.911px 276.238px 303.178px 315.501px 327.184px 351.297px " y="92.57px 92.57px 92.57px 92.57px 92.57px 92.57px 92.57px 92.57px ">equelize</tspan>
            </text>
        </g>
    </g>
</svg>