<?xml version="1.0" encoding="UTF-8" standalone="no"?>
<!DOCTYPE svg PUBLIC "-//W3C//DTD SVG 1.1//EN" "http://www.w3.org/Graphics/SVG/1.1/DTD/svg11.dtd">
<svg width="100%" height="100%" viewBox="0 0 450 150" version="1.1"
    xmlns="http://www.w3.org/2000/svg"
    xmlns:xlink="http://www.w3.org/1999/xlink" xml:space="preserve" style="fill-rule:evenodd;clip-rule:evenodd;stroke-linejoin:round;stroke-miterlimit:2;">
    <g transform="matrix(0.636373,0,0,0.636373,225,79.4656)">
        <g id="SQLiteIcon" transform="matrix(1,0,0,1,-190.926,-90.3017)">
            <path id="SQLite" d="M147.531,89.219C142.709,89.219 138.788,90.646 135.781,93.5C132.775,96.356 131.25,100.1 131.25,104.688C131.25,107.065 131.629,109.233 132.375,111.219C133.121,113.209 134.283,115.053 135.844,116.719C137.405,118.386 140.53,120.651 145.188,123.531C150.903,127.02 154.643,129.852 156.438,132.063C158.234,134.272 159.125,136.587 159.125,139C159.125,142.232 158.061,144.811 155.875,146.75C153.685,148.69 150.756,149.656 147.125,149.656C143.295,149.656 139.959,148.306 137.094,145.625C134.229,142.94 132.783,139.389 132.75,134.938L130.969,134.938L130.969,151.094L132.75,151.094C133.294,149.564 134.046,148.781 135.031,148.781C135.505,148.781 136.615,149.108 138.344,149.719C142.55,151.215 146.004,151.938 148.719,151.938C153.398,151.938 157.391,150.299 160.719,146.969C164.041,143.64 165.719,139.625 165.719,134.938C165.719,131.303 164.611,128.069 162.438,125.25C160.264,122.428 156.036,119.145 149.719,115.375C144.283,112.109 140.754,109.449 139.125,107.375C137.494,105.304 136.656,103.014 136.656,100.5C136.656,97.781 137.655,95.598 139.625,93.969C141.595,92.339 144.176,91.531 147.406,91.531C151.041,91.531 154.071,92.61 156.469,94.781C158.864,96.956 160.249,99.97 160.656,103.844L162.438,103.844L162.438,89.844L160.781,89.844C160.579,90.558 160.391,91.014 160.219,91.219C160.051,91.423 159.729,91.531 159.25,91.531C158.674,91.531 157.646,91.289 156.188,90.813C153.063,89.76 150.181,89.219 147.531,89.219ZM205.75,89.219C199.874,89.219 194.539,90.604 189.719,93.375C184.891,96.141 181.07,99.983 178.25,104.875C175.431,109.767 174.031,114.963 174.031,120.5C174.031,127.939 176.466,134.566 181.375,140.375C186.286,146.18 192.171,149.797 199,151.188C200.561,152.001 202.795,154.101 205.719,157.5C209.014,161.336 211.801,164.103 214.094,165.75C216.384,167.398 218.856,168.607 221.469,169.406C224.084,170.203 226.911,170.594 229.969,170.594C233.671,170.594 236.986,169.95 239.906,168.625L239.25,167C237.555,167.611 235.748,167.906 233.844,167.906C231.26,167.906 228.649,167.054 226.031,165.344C223.417,163.629 220.149,160.357 216.25,155.531C214.417,153.219 213.153,151.76 212.438,151.188C219.909,149.729 226.053,146.107 230.844,140.313C235.634,134.52 238.031,127.909 238.031,120.5C238.031,111.703 234.901,104.309 228.688,98.281C222.469,92.253 214.821,89.219 205.75,89.219ZM242.094,89.219L242.187,91.125C246.1,91.125 248.291,92.278 248.781,94.594C248.964,95.423 249.047,96.953 249.062,99.156L249.031,141.313C248.999,144.461 248.55,146.471 247.688,147.344C246.824,148.21 245.364,148.753 243.25,148.969L243.156,150.875L282.156,150.875L283.156,141.313L281.375,141.313C280.866,143.918 279.7,145.784 277.844,146.844C275.983,147.912 272.691,148.438 267.938,148.438L264.25,148.438C259.973,148.438 257.498,146.891 256.844,143.781C256.709,143.166 256.663,142.506 256.656,141.781L256.813,99.156C256.812,96.013 257.209,93.906 258.031,92.875C258.863,91.848 260.361,91.273 262.531,91.125L262.438,89.219L242.094,89.219L242.094,89.219ZM206.375,91.531C213.003,91.531 218.414,94.142 222.594,99.406C226.773,104.673 228.844,111.891 228.844,121.031C228.844,129.692 226.743,136.627 222.531,141.844C218.32,147.059 212.715,149.656 205.75,149.656C199.059,149.656 193.633,146.978 189.469,141.594C185.309,136.21 183.25,129.22 183.25,120.625C183.25,111.793 185.334,104.722 189.531,99.438C193.726,94.159 199.344,91.531 206.375,91.531ZM296.063,100.594C295.111,100.594 294.386,100.915 293.844,101.563C293.289,102.208 293.119,102.989 293.313,103.938C293.5,104.858 294.019,105.665 294.844,106.344C295.664,107.022 296.549,107.375 297.5,107.375C298.42,107.375 299.121,107.022 299.625,106.344C300.129,105.665 300.283,104.858 300.094,103.938C299.9,102.989 299.399,102.208 298.625,101.563C297.842,100.915 296.983,100.594 296.063,100.594ZM321.781,107.063C320.165,113.28 316.661,116.645 311.281,117.188L311.344,118.969L317.625,118.969L317.5,140.031C317.51,143.632 317.62,146.03 317.875,147.25C318.494,150.171 320.401,151.656 323.594,151.656C328.212,151.656 333.058,148.843 338.125,143.219L336.594,141.906C332.935,145.61 329.7,147.469 326.875,147.469C325.139,147.469 324.063,146.47 323.656,144.5C323.545,144.022 323.5,143.462 323.5,142.813L323.563,118.969L333.156,118.969L333.063,116.125L323.594,116.125L323.594,107.063L321.781,107.063L321.781,107.063ZM358.875,115C353.509,115 349.144,117.605 345.75,122.781C342.374,127.966 341.329,133.711 342.656,140.031C343.438,143.733 344.994,146.603 347.375,148.625C349.753,150.647 352.769,151.656 356.375,151.656C359.733,151.656 364.408,150.806 366.375,149.094C368.348,147.382 370.165,144.61 371.844,140.813L370.5,139.406C367.823,144.333 362.419,146.813 358.344,146.813C352.741,146.813 349.31,143.739 348.031,137.625C347.865,136.845 347.741,136.006 347.656,135.125C354.321,134.07 359.373,132.201 362.781,129.5C366.188,126.797 369.608,123.933 368.969,120.906C368.589,119.108 367.655,117.694 366.219,116.625C364.764,115.557 360.986,115 358.875,115ZM300.219,115.219L288.656,117.875L288.656,119.938L292.656,119.438C294.594,119.438 295.734,120.315 296.094,122.063C296.215,122.647 296.291,123.469 296.313,124.5L296.188,143.406C296.155,146.023 295.865,147.543 295.281,148C294.693,148.458 293.14,148.688 290.625,148.688L290.563,150.469L308.906,150.469L308.875,148.688C306.326,148.688 304.674,148.486 303.938,148.094C303.214,147.704 302.715,146.994 302.5,145.906C302.334,145.123 302.261,143.772 302.25,141.906L302.313,115.219L300.219,115.219L300.219,115.219ZM355.938,118.719C357.054,118.719 358.133,119.15 359.219,120C360.29,120.847 360.943,121.789 361.156,122.813C362.203,127.839 357.746,131.314 347.719,133.25C347.433,129.585 348.068,126.258 349.688,123.25C351.295,120.245 353.389,118.719 355.938,118.719Z" style="fill:rgb(0,59,87);fill-rule:nonzero;"/>
            <path id="solid-background" d="M121.632,17.036L22.126,17.036C15.457,17.036 10,22.494 10,29.162L10,138.899C10,145.567 15.457,151.024 22.126,151.024L87.663,151.024C86.919,118.415 98.054,55.13 121.632,17.036Z" style="fill:rgb(15,128,204);fill-rule:nonzero;"/>
            <path id="gradient-background" d="M118.016,20.574L22.125,20.574C17.39,20.574 13.537,24.426 13.537,29.162L13.537,130.893C35.254,122.558 67.849,115.366 90.386,115.692C94.915,92.011 108.226,45.602 118.016,20.574Z" style="fill:url(#_Linear1);fill-rule:nonzero;"/>
            <path id="feather" d="M144.842,13.445C138.027,7.367 129.775,9.809 121.631,17.036C120.423,18.11 119.216,19.301 118.016,20.574C104.085,35.352 91.154,62.727 87.137,83.634C88.702,86.807 89.924,90.857 90.729,93.951C90.935,94.745 91.122,95.49 91.27,96.124C91.624,97.624 91.814,98.596 91.814,98.596C91.814,98.596 91.689,98.124 91.177,96.637C91.079,96.352 90.97,96.041 90.842,95.675C90.787,95.524 90.71,95.34 90.627,95.144C89.718,93.031 87.204,88.572 86.098,86.631C85.152,89.422 84.315,92.034 83.615,94.396C86.809,100.24 88.755,110.254 88.755,110.254C88.755,110.254 88.587,109.605 87.784,107.34C87.072,105.336 83.523,99.119 82.682,97.665C81.244,102.974 80.673,106.558 81.188,107.43C82.188,109.121 83.141,112.039 83.978,115.265C85.868,122.534 87.182,131.382 87.182,131.382C87.182,131.382 87.224,131.969 87.295,132.871C87.033,138.975 87.19,145.304 87.663,151.024C88.289,158.596 89.468,165.101 90.97,168.582L91.99,168.026C89.784,161.167 88.888,152.179 89.28,141.812C89.874,125.967 93.52,106.859 100.258,86.942C111.64,56.877 127.433,32.755 141.887,21.235C128.713,33.132 110.883,71.644 105.545,85.905C99.569,101.875 95.334,116.861 92.782,131.22C97.185,117.759 111.424,111.973 111.424,111.973C111.424,111.973 118.408,103.36 126.569,91.055C121.68,92.17 113.653,94.079 110.964,95.209C106.998,96.872 105.929,97.44 105.929,97.44C105.929,97.44 118.777,89.616 129.799,86.074C144.958,62.199 161.473,28.281 144.842,13.445" style="fill:rgb(0,59,87);fill-rule:nonzero;"/>
        </g>
    </g>
    <defs>
        <linearGradient id="_Linear1" x1="0" y1="0" x2="1" y2="0" gradientUnits="userSpaceOnUse" gradientTransform="matrix(-4.45903e-06,101.926,-101.926,-4.45903e-06,73.7814,22.8313)">
            <stop offset="0" style="stop-color:rgb(151,217,246);stop-opacity:1"/>
            <stop offset="0.92" style="stop-color:rgb(15,128,204);stop-opacity:1"/>
            <stop offset="1" style="stop-color:rgb(15,128,204);stop-opacity:1"/>
        </linearGradient>
    </defs>
</svg>
