<?xml version="1.0" encoding="UTF-8" standalone="no"?><!DOCTYPE svg PUBLIC "-//W3C//DTD SVG 1.1//EN" "http://www.w3.org/Graphics/SVG/1.1/DTD/svg11.dtd">
<svg width="100%" height="100%" viewBox="0 0 256 256" version="1.1"
    xmlns="http://www.w3.org/2000/svg"
    xmlns:xlink="http://www.w3.org/1999/xlink" xml:space="preserve" style="fill-rule:evenodd;clip-rule:evenodd;stroke-linejoin:round;stroke-miterlimit:1.41421;">
    <rect id="mm" x="0" y="0" width="256" height="256" style="fill-opacity:0;"/>
    <path d="M167.39,155.044c3.705,-0.133 7.221,-1.013 10.403,-2.493c-9.005,20.37 -28.862,34.535 -51.888,34.535c-5.437,-6.998 -10.335,-16.411 -13.746,-27.259l-30.027,-8.81l26.245,-7.7c-0.24,-1.632 -0.445,-3.282 -0.611,-4.948l-46.559,-10.369l46.559,-10.369c0.167,-1.666 0.371,-3.316 0.611,-4.948l-26.245,-7.7l30.027,-8.81c3.411,-10.848 8.309,-20.261 13.746,-27.259c23.026,0 42.883,14.165 51.888,34.535c-3.183,-1.481 -6.7,-2.361 -10.407,-2.493c-0.009,-0.158 -0.064,-0.29 -0.064,-0.29c-1.962,-4.733 -3.088,-4.521 -1.078,0.018c0.039,0.09 0.082,0.175 0.13,0.254c-14.923,0.015 -27.035,12.135 -27.035,27.062c0,14.936 12.126,27.062 27.062,27.062l0.043,0c-1.302,3.214 -1.352,5.549 0.716,0.878c0.125,-0.289 0.315,-0.642 0.23,-0.896Z" style="fill:#bebebf;"/>
    <circle cx="168" cy="128" r="16.175" style="fill:#bfbfbf;"/>
</svg>